<svg width="36" height="32" viewBox="0 0 36 32" fill="none" xmlns="http://www.w3.org/2000/svg">
<path d="M10.0948 23.9808L6.45129 21.6494" stroke="#5E718D" strokeWidth="0.3"/>
<path d="M14.8257 24.6814L6.3573 19.271" stroke="#5E718D" strokeWidth="0.3"/>
<path d="M16.2631 23.2856L6.45129 17.0127" stroke="#5E718D" strokeWidth="0.3"/>
<path d="M19.5513 25.387L17.3401 23.9756" stroke="#5E718D" strokeWidth="0.3"/>
<path d="M16.2631 20.9648L6.45129 14.6919" stroke="#5E718D" strokeWidth="0.3"/>
<path d="M24.1144 25.9829L17.4128 21.7017" stroke="#5E718D" strokeWidth="0.3"/>
<path d="M16.2628 18.6489L6.48761 12.397" stroke="#5E718D" strokeWidth="0.3"/>
<path d="M29.0233 26.7984L17.3401 19.3389" stroke="#5E718D" strokeWidth="0.3"/>
<path d="M16.2628 16.3278L6.48761 10.0811" stroke="#5E718D" strokeWidth="0.3"/>
<path d="M29.9273 25.068L17.4391 17.0806" stroke="#5E718D" strokeWidth="0.3"/>
<path d="M16.2628 14.0122L6.48761 7.76025" stroke="#5E718D" strokeWidth="0.3" strokeLinecap="round"/>
<path d="M29.9274 22.747L17.3921 14.7334" stroke="#5E718D" strokeWidth="0.3" strokeLinecap="round"/>
<path d="M16.2631 11.6913L7.664 6.19727" stroke="#5E718D" strokeWidth="0.3" strokeLinecap="round"/>
<path d="M29.9274 20.4312L17.4078 12.4229" stroke="#5E718D" strokeWidth="0.3" strokeLinecap="round"/>
<path d="M16.2629 9.37554L10.5179 5.70068" stroke="#5E718D" strokeWidth="0.3"/>
<path d="M29.9276 18.1103L17.3138 10.0444" stroke="#5E718D" strokeWidth="0.3"/>
<path d="M16.263 7.05431L13.482 5.28223" stroke="#5E718D" strokeWidth="0.3"/>
<path d="M29.9277 15.7948L17.3401 7.74463" stroke="#5E718D" strokeWidth="0.3"/>
<path d="M29.9273 13.4736L17.3658 5.44434" stroke="#5E718D" strokeWidth="0.3"/>
<path d="M29.8598 11.1109L19.4207 4.43555" stroke="#5E718D" strokeWidth="0.3"/>
<path d="M29.8489 8.78979L22.2797 3.94922" stroke="#5E718D" strokeWidth="0.3"/>
<path d="M29.8597 6.47419L25.223 3.51025" stroke="#5E718D" strokeWidth="0.3"/>
<path d="M29.9276 4.20024L28.2339 3.11816" stroke="#5E718D" strokeWidth="0.3"/>
<path d="M27.0055 26.5003L29.9276 24.6289" stroke="#5E718D" strokeWidth="0.3"/>
<path d="M24.1147 26.0299L29.8858 22.3394" stroke="#5E718D" strokeWidth="0.3"/>
<path d="M21.1245 25.6221L29.9274 19.9922" stroke="#5E718D" strokeWidth="0.3"/>
<path d="M18.176 25.1885L29.8488 17.729" stroke="#5E718D" strokeWidth="0.3"/>
<path d="M17.3239 23.4161L29.9272 15.3555" stroke="#5E718D" strokeWidth="0.3"/>
<path d="M15.2383 24.7438L16.2472 24.0747" stroke="#5E718D" strokeWidth="0.3"/>
<path d="M17.3401 21.085L29.844 13.0923" stroke="#5E718D" strokeWidth="0.3"/>
<path d="M12.3581 24.2736L16.263 21.7749" stroke="#5E718D" strokeWidth="0.3"/>
<path d="M17.3972 18.7324L29.9272 10.7188" stroke="#5E718D" strokeWidth="0.3"/>
<path d="M9.43091 23.8237L16.1847 19.5059" stroke="#5E718D" strokeWidth="0.3"/>
<path d="M17.3401 16.4483L29.9277 8.40332" stroke="#5E718D" strokeWidth="0.3"/>
<path d="M6.46179 23.4058L16.2632 17.1382" stroke="#5E718D" strokeWidth="0.3"/>
<path d="M17.3401 14.1323L29.9799 6.05078" stroke="#5E718D" strokeWidth="0.3"/>
<path d="M6.4093 21.1216L16.2629 14.8174" stroke="#5E718D" strokeWidth="0.3"/>
<path d="M17.4078 11.7693L29.9274 3.76611" stroke="#5E718D" strokeWidth="0.3"/>
<path d="M6.40424 18.8057L16.2631 12.5015" stroke="#5E718D" strokeWidth="0.3"/>
<path d="M17.3401 9.49553L27.1467 3.22266" stroke="#5E718D" strokeWidth="0.3"/>
<path d="M6.48761 16.4321L16.2628 10.1802" stroke="#5E718D" strokeWidth="0.3"/>
<path d="M17.3401 7.17492L22.4211 3.92871" stroke="#5E718D" strokeWidth="0.3"/>
<path d="M6.45129 14.1376L16.2631 7.86475" stroke="#5E718D" strokeWidth="0.3"/>
<path d="M6.45129 11.8221L16.2631 5.54395" stroke="#5E718D" strokeWidth="0.3"/>
<path d="M6.45129 9.50102L12.8914 5.38184" stroke="#5E718D" strokeWidth="0.3" strokeLinecap="round"/>
<path d="M6.45129 7.18533L8.23384 6.04053" stroke="#5E718D" strokeWidth="0.3" strokeLinecap="round"/>
<path d="M29.875 2.81494H29.7652L6.48761 6.30162" stroke="#5E718D" strokeWidth="0.3" strokeLinecap="round" stroke-linejoin="bevel"/>
<path d="M6.52454 5.29792L29.7655 1.42964C29.8194 1.42449 29.8737 1.42449 29.9276 1.42964" stroke="#5E718D" strokeWidth="0.3" strokeLinecap="round" stroke-linejoin="bevel"/>
<path d="M6.48254 23.4424L29.7654 26.9343H29.8856" stroke="#5E718D" strokeWidth="0.3" strokeLinecap="round" stroke-linejoin="bevel"/>
<path d="M29.8699 28.3249H29.7654L6.48254 24.4409" stroke="#5E718D" strokeWidth="0.3" strokeLinecap="round" stroke-linejoin="bevel"/>
<path d="M29.9277 29.9818V1.67548C29.9277 1.48416 30.0037 1.30067 30.139 1.16539C30.2742 1.0301 30.4577 0.954102 30.6491 0.954102V0.954102C30.7435 0.954099 30.8371 0.972795 30.9243 1.00911C31.0116 1.04543 31.0907 1.09865 31.1573 1.1657C31.2239 1.23276 31.2765 1.31232 31.3122 1.39982C31.3479 1.48731 31.3659 1.581 31.3652 1.67548V29.6891" stroke="#5E718D" strokeWidth="0.3" strokeLinecap="round" stroke-linejoin="bevel"/>
<path d="M5.46328 26.1135V5.28228C5.46259 5.21731 5.47479 5.15285 5.49918 5.09263C5.52356 5.03241 5.55965 4.97762 5.60534 4.93144C5.65104 4.88525 5.70544 4.84859 5.7654 4.82357C5.82536 4.79855 5.88969 4.78567 5.95466 4.78567V4.78567C6.02007 4.78497 6.08496 4.79734 6.14553 4.82205C6.20609 4.84676 6.26112 4.88331 6.30737 4.92956C6.35362 4.97582 6.39018 5.03084 6.41489 5.09141C6.4396 5.15198 6.45196 5.21687 6.45126 5.28228V25.9775" stroke="#5E718D" strokeWidth="0.3" strokeLinecap="round" stroke-linejoin="bevel"/>
<path d="M17.34 25.0577L16.2632 24.8433V4.84332L17.34 4.73877V25.0577Z" stroke="#5E718D" strokeWidth="0.3" strokeLinecap="round" stroke-linejoin="bevel"/>
<path d="M29.8857 29.365L27.3713 29.8878L29.2323 30.2432C29.3412 30.207 29.4532 30.1807 29.5668 30.1648L33.2783 29.3023L31.4957 29.0409M31.4278 28.3979H31.5376L35.0974 28.9207C35.1706 28.9369 35.236 28.9777 35.2829 29.0361C35.3298 29.0946 35.3553 29.1672 35.3553 29.2422C35.3553 29.3171 35.3298 29.3898 35.2829 29.4482C35.236 29.5067 35.1706 29.5474 35.0974 29.5637L29.4675 30.928C29.3073 30.9628 29.1415 30.9628 28.9814 30.928L25.594 30.2641C25.5193 30.2494 25.4522 30.2089 25.4044 30.1496C25.3566 30.0903 25.3312 30.0161 25.3326 29.94C25.3346 29.8646 25.362 29.7921 25.4104 29.7342C25.4588 29.6763 25.5254 29.6365 25.5992 29.6212L29.9275 28.6855L31.4278 28.3979Z" stroke="#5E718D" strokeWidth="0.3" strokeLinecap="round" stroke-linejoin="round"/>
<path d="M5.29593 25.4392L3.11611 25.8888L4.99797 26.239C5.05696 26.2468 5.11671 26.2468 5.1757 26.239L8.16055 25.7686L6.48255 25.5229M6.47732 24.9897H6.59233L9.84377 25.5124C10.0633 25.5124 10.2201 25.6536 10.2254 25.7895C10.2306 25.9254 10.0685 26.0404 9.85422 26.0665L5.31162 26.8506H5.08161C5.00947 26.8457 4.93782 26.8352 4.86729 26.8193L1.16106 26.1397C1.11325 26.1294 1.07072 26.1023 1.04123 26.0633C1.01174 26.0243 0.99726 25.976 1.00043 25.9272C1.0036 25.8784 1.0242 25.8323 1.05849 25.7975C1.09278 25.7626 1.13846 25.7412 1.1872 25.7372L5.22275 24.9165L6.47732 24.9897Z" stroke="#5E718D" strokeWidth="0.3" strokeLinecap="round" stroke-linejoin="round"/>
</svg>
