<svg width="34" height="32" viewBox="0 0 34 32" fill="none" xmlns="http://www.w3.org/2000/svg">
<path d="M21.8301 13.788L33.3963 4.04875V3.45459L21.8301 13.1146V13.788Z" fill="#F8FCFD"/>
<path d="M1 10.0894V10.7677L1.51989 10.8568V14.0752V15.5309V19.1899V27.206L21.7361 30.9542L32.8864 27.0129V12.0154V10.9014V9.34669V4.50431L33.4311 4.00423V3.3457" stroke="#5E718D" strokeWidth="0.4" strokeLinecap="round" stroke-linejoin="round"/>
<path d="M21.7362 21.8386L32.8865 17.729" stroke="#5E718D" strokeWidth="0.4" strokeLinecap="round" stroke-linejoin="bevel"/>
<path d="M21.7362 18.1745L32.8865 13.8223" stroke="#5E718D" strokeWidth="0.4" strokeLinecap="round" stroke-linejoin="bevel"/>
<path d="M12.4276 0.954102L1 10.0893L21.7806 13.1343L33.4459 3.35548L12.4276 0.954102Z" stroke="#5E718D" strokeWidth="0.4" strokeLinecap="round" stroke-linejoin="bevel"/>
<path d="M32.8868 4.50439L21.8058 13.8525L1.52026 10.8569" stroke="#5E718D" strokeWidth="0.4" strokeLinecap="round" stroke-linejoin="bevel"/>
<path d="M2.52531 20.7939C2.5006 20.7939 2.47613 20.7988 2.45331 20.8083C2.43048 20.8177 2.40974 20.8316 2.39227 20.8491C2.37479 20.8665 2.36094 20.8873 2.35148 20.9101C2.34202 20.9329 2.33716 20.9574 2.33716 20.9821C2.33716 21.0068 2.34202 21.0313 2.35148 21.0541C2.36094 21.0769 2.37479 21.0977 2.39227 21.1151C2.40974 21.1326 2.43048 21.1465 2.45331 21.1559C2.47613 21.1654 2.5006 21.1702 2.52531 21.1702L20.6075 24.4381C20.6322 24.4381 20.6566 24.4332 20.6795 24.4238C20.7023 24.4143 20.723 24.4005 20.7405 24.383C20.758 24.3655 20.7718 24.3448 20.7813 24.322C20.7908 24.2991 20.7956 24.2747 20.7956 24.25C20.7956 24.2252 20.7908 24.2008 20.7813 24.178C20.7718 24.1551 20.758 24.1344 20.7405 24.1169C20.723 24.0994 20.7023 24.0856 20.6795 24.0761C20.6566 24.0667 20.6322 24.0618 20.6075 24.0618L2.52531 20.7939Z" fill="#5E718D"/>
<path d="M2.52531 24.6411C2.47541 24.6411 2.42755 24.6609 2.39227 24.6962C2.35698 24.7315 2.33716 24.7794 2.33716 24.8293C2.33716 24.8792 2.35698 24.927 2.39227 24.9623C2.42755 24.9976 2.47541 25.0174 2.52531 25.0174L20.6075 28.419C20.6574 28.419 20.7052 28.3991 20.7405 28.3639C20.7758 28.3286 20.7956 28.2807 20.7956 28.2308C20.7956 28.1809 20.7758 28.1331 20.7405 28.0978C20.7052 28.0625 20.6574 28.0427 20.6075 28.0427L2.52531 24.6411Z" fill="#5E718D"/>
<path d="M19.4386 21.4871L21.736 21.8436V18.1747L19.5376 17.838C19.4901 17.8301 19.4415 17.8326 19.3951 17.8454C19.3487 17.8582 19.3056 17.8809 19.2688 17.912C19.2321 17.9431 19.2026 17.9818 19.1823 18.0255C19.162 18.0691 19.1514 18.1166 19.1514 18.1648V21.1356C19.1468 21.2194 19.1737 21.302 19.2268 21.367C19.28 21.4321 19.3555 21.4749 19.4386 21.4871Z" stroke="#5E718D" strokeWidth="0.4"/>
<path d="M1.53992 18.7048L3.46102 19.0167C3.51199 19.0252 3.56418 19.0227 3.61409 19.0093C3.664 18.996 3.71046 18.9721 3.75035 18.9392C3.79023 18.9064 3.82261 18.8654 3.8453 18.8189C3.86799 18.7725 3.88047 18.7218 3.88188 18.6701V15.7588C3.88288 15.6716 3.85236 15.5871 3.79596 15.5207C3.73955 15.4542 3.66105 15.4104 3.5749 15.3973L1.53992 15.0903V18.7048Z" stroke="#5E718D" strokeWidth="0.4"/>
<path d="M2.52042 12.897C2.49594 12.897 2.47171 12.9019 2.44915 12.9114C2.4266 12.9209 2.40618 12.9348 2.3891 12.9524C2.37202 12.9699 2.35863 12.9907 2.34972 13.0135C2.34081 13.0363 2.33656 13.0607 2.33723 13.0851C2.33722 13.1096 2.34211 13.1338 2.35163 13.1564C2.36114 13.1789 2.37508 13.1994 2.39262 13.2164C2.41016 13.2335 2.43094 13.2469 2.45375 13.2558C2.47655 13.2647 2.5009 13.269 2.52537 13.2683L20.6273 15.9222C20.6772 15.9222 20.7251 15.9024 20.7604 15.8671C20.7957 15.8318 20.8155 15.784 20.8155 15.7341C20.8155 15.6842 20.7957 15.6363 20.7604 15.601C20.7251 15.5657 20.6772 15.5459 20.6273 15.5459L2.52042 12.897Z" fill="#5E718D"/>
<path d="M21.6669 2.02344L10.9276 11.5002L10.9226 12.1786" stroke="#5E718D" strokeWidth="0.4" strokeLinecap="round" stroke-linejoin="bevel"/>
<path d="M24.7168 18.1651L30.797 15.7241V18.0611L24.7168 20.111V17.8928" fill="#F8FCFD"/>
<path d="M24.7168 18.1651L30.797 15.7241V18.0611L24.7168 20.111V17.8928" stroke="#5E718D" strokeWidth="0.4" stroke-linejoin="round"/>
<path d="M24.7219 18.165L30.7972 15.7784L30.2525 14.8525L24.2268 17.2044L24.7219 18.165Z" fill="#F8FCFD" stroke="#5E718D" strokeWidth="0.4" strokeLinecap="round" stroke-linejoin="bevel"/>
<path d="M30.797 18.4968L24.291 20.8932L24.7168 20.1109L30.797 17.9175V18.4968Z" fill="#F8FCFD" stroke="#5E718D" strokeWidth="0.4" strokeLinecap="round" stroke-linejoin="round"/>
<path d="M21.7362 30.7907V13.2383" stroke="#5E718D" strokeWidth="0.4" strokeLinecap="round" stroke-linejoin="bevel"/>
</svg>
