<svg width="50" height="30" viewBox="0 0 50 30" fill="none" xmlns="http://www.w3.org/2000/svg">
<path d="M42.4144 21.1111H44.727C45.2012 21.1111 45.6783 21.4794 46.0487 22.1821C46.4143 22.8757 46.6464 23.8476 46.6464 24.932C46.6464 26.0163 46.4143 26.9882 46.0487 27.6818C45.6783 28.3845 45.2012 28.7528 44.727 28.7528H42.4144C41.9401 28.7528 41.463 28.3845 41.0926 27.6818C40.7271 26.9882 40.4949 26.0163 40.4949 24.932C40.4949 23.8476 40.7271 22.8757 41.0926 22.1821C41.463 21.4794 41.9401 21.1111 42.4144 21.1111Z" stroke="#5E718D" strokeWidth="0.4"/>
<path d="M45.9973 24.9335C45.9973 25.578 45.8591 26.1516 45.6455 26.5568C45.427 26.9712 45.1598 27.1611 44.9174 27.1611C44.6749 27.1611 44.4077 26.9712 44.1892 26.5568C43.9756 26.1516 43.8375 25.578 43.8375 24.9335C43.8375 24.289 43.9756 23.7154 44.1892 23.3102C44.4077 22.8958 44.6749 22.7059 44.9174 22.7059C45.1598 22.7059 45.427 22.8958 45.6455 23.3102C45.8591 23.7154 45.9973 24.289 45.9973 24.9335Z" stroke="#5E718D" strokeWidth="0.4"/>
<path d="M45.6333 24.9336C45.6333 25.6837 45.3123 26.2924 44.9174 26.2924C44.5225 26.2924 44.2014 25.6837 44.2014 24.9336C44.2014 24.1834 44.5225 23.5747 44.9174 23.5747C45.3123 23.5747 45.6333 24.1834 45.6333 24.9336Z" stroke="#5E718D" strokeWidth="0.4" strokeLinecap="round" stroke-linejoin="round"/>
<path d="M35.9452 21.1111H38.2579C38.7321 21.1111 39.2092 21.4794 39.5796 22.1821C39.9452 22.8757 40.1773 23.8476 40.1773 24.932C40.1773 26.0163 39.9452 26.9882 39.5796 27.6818C39.2092 28.3845 38.7321 28.7528 38.2579 28.7528H35.9452C35.471 28.7528 34.9939 28.3845 34.6235 27.6818C34.2579 26.9882 34.0258 26.0163 34.0258 24.932C34.0258 23.8476 34.2579 22.8757 34.6235 22.1821C34.9939 21.4794 35.471 21.1111 35.9452 21.1111Z" stroke="#5E718D" strokeWidth="0.4"/>
<path d="M39.5281 24.9335C39.5281 25.578 39.39 26.1516 39.1764 26.5568C38.9579 26.9712 38.6907 27.1611 38.4482 27.1611C38.2058 27.1611 37.9386 26.9712 37.7201 26.5568C37.5065 26.1516 37.3683 25.578 37.3683 24.9335C37.3683 24.289 37.5065 23.7154 37.7201 23.3102C37.9386 22.8958 38.2058 22.7059 38.4482 22.7059C38.6907 22.7059 38.9579 22.8958 39.1764 23.3102C39.39 23.7154 39.5281 24.289 39.5281 24.9335Z" stroke="#5E718D" strokeWidth="0.4"/>
<path d="M39.1642 24.9336C39.1642 25.6837 38.8432 26.2924 38.4483 26.2924C38.0533 26.2924 37.7323 25.6837 37.7323 24.9336C37.7323 24.1834 38.0533 23.5747 38.4483 23.5747C38.8432 23.5747 39.1642 24.1834 39.1642 24.9336Z" stroke="#5E718D" strokeWidth="0.4" strokeLinecap="round" stroke-linejoin="round"/>
<path d="M37.6542 21.4127H37.5653L37.5058 21.4786L36.436 22.6629H32.6591L34.0122 20.7811H46.2551L46.0516 21.4127H37.6542Z" stroke="#5E718D" strokeWidth="0.4"/>
<path d="M31.5317 23.1522L25.4 23.1007V19.8221L31.5052 19.8675L31.5317 23.1522Z" stroke="#5E718D" strokeWidth="0.4"/>
<path d="M31.7333 20.901H46.8876L49 3.14455L27.2246 2.14434L25.7728 0.954102L10.8912 1.43277L11.0944 3.00166L13.4752 2.93736V4.22077" stroke="#5E718D" strokeWidth="0.4"/>
<path d="M28.7033 19.6739L27.8581 19.6625V3.19482" stroke="#5E718D" strokeWidth="0.4" stroke-miterlimit="10"/>
<path d="M30.702 19.6983L29.8639 19.6883L30.05 3.29785" stroke="#5E718D" strokeWidth="0.4" stroke-miterlimit="10"/>
<path d="M32.6837 19.7223L31.8527 19.7123L32.2206 3.39893" stroke="#5E718D" strokeWidth="0.4" stroke-miterlimit="10"/>
<path d="M34.6497 19.7466L33.8243 19.7366L34.3727 3.49902" stroke="#5E718D" strokeWidth="0.4" stroke-miterlimit="10"/>
<path d="M36.5987 19.7695L35.7805 19.7595L36.5049 3.59766" stroke="#5E718D" strokeWidth="0.4" stroke-miterlimit="10"/>
<path d="M38.532 19.7939L37.7209 19.7839L38.6172 3.69629" stroke="#5E718D" strokeWidth="0.4" stroke-miterlimit="10"/>
<path d="M40.4483 19.8168L39.6443 19.8082L40.7111 3.79492" stroke="#5E718D" strokeWidth="0.4" stroke-miterlimit="10"/>
<path d="M42.3504 19.841L41.5535 19.831L42.7879 3.89062" stroke="#5E718D" strokeWidth="0.4" stroke-miterlimit="10"/>
<path d="M44.2369 19.8639L43.4456 19.8539L44.8448 3.98779" stroke="#5E718D" strokeWidth="0.4" stroke-miterlimit="10"/>
<path d="M46.1077 19.8867L45.3236 19.8767L46.8834 4.08203" stroke="#5E718D" strokeWidth="0.4" stroke-miterlimit="10"/>
<path d="M11.0958 3.00032L24.8153 2.50879L25.8949 3.19464L48.8849 4.1234" stroke="#5E718D" strokeWidth="0.4" stroke-miterlimit="10"/>
<path d="M23.3437 20.9111C24.5142 20.9111 25.4631 22.7115 25.4631 24.932C25.4631 27.1524 24.5142 28.9528 23.3437 28.9528H21.0311C19.8605 28.9528 19.1334 27.5542 19.1334 26.6209" stroke="#5E718D" strokeWidth="0.4"/>
<path d="M24.6154 24.9335C24.6154 25.578 24.4772 26.1516 24.2636 26.5568C24.0451 26.9712 23.7779 27.1611 23.5355 27.1611C23.293 27.1611 23.0258 26.9712 22.8073 26.5568C22.5937 26.1516 22.4556 25.578 22.4556 24.9335C22.4556 24.289 22.5937 23.7154 22.8073 23.3102C23.0258 22.8958 23.293 22.7059 23.5355 22.7059C23.7779 22.7059 24.0451 22.8958 24.2636 23.3102C24.4772 23.7154 24.6154 24.289 24.6154 24.9335Z" stroke="#5E718D" strokeWidth="0.4"/>
<path d="M24.2514 24.9336C24.2514 25.6837 23.9304 26.2924 23.5355 26.2924C23.1406 26.2924 22.8195 25.6837 22.8195 24.9336C22.8195 24.1834 23.1406 23.5747 23.5355 23.5747C23.9304 23.5747 24.2514 24.1834 24.2514 24.9336Z" stroke="#5E718D" strokeWidth="0.4" strokeLinecap="round" stroke-linejoin="round"/>
<path d="M6.66375 26.9985H6.6706H6.67741H6.68421H6.69097H6.6977H6.70441H6.7111H6.71775H6.72438H6.73098H6.73756H6.74411H6.75063H6.75713H6.7636H6.77005H6.77647H6.78286H6.78923H6.79558H6.8019H6.80819H6.81446H6.8207H6.82692H6.83311H6.83928H6.84543H6.85155H6.85764H6.86371H6.86976H6.87578H6.88178H6.88776H6.89371H6.89964H6.90554H6.91143H6.91728H6.92312H6.92893H6.93472H6.94049H6.94623H6.95195H6.95765H6.96333H6.96898H6.97461H6.98022H6.98581H6.99137H6.99692H7.00244H7.00794H7.01342H7.01888H7.02431H7.02973H7.03512H7.0405H7.04585H7.05118H7.05649H7.06178H7.06706H7.07231H7.07754H7.08275H7.08794H7.09311H7.09826H7.10339H7.1085H7.11359H7.11867H7.12372H7.12875H7.13377H7.13877H7.14374H7.1487H7.15364H7.15857H7.16347H7.16836H7.17322H7.17807H7.18291H7.18772H7.19252H7.1973H7.20206H7.2068H7.21153H7.21624H7.22093H7.22561H7.23026H7.23491H7.23953H7.24414H7.24873H7.25331H7.25787H7.26241H7.26694H7.27145H7.27595H7.28043H7.2849H7.28934H7.29378H7.2982H7.3026H7.30699H7.31137H7.31572H7.32007H7.3244H7.32872H7.33302H7.3373H7.34158H7.34584H7.35008H7.35431H7.35853H7.36273H7.36692H7.3711H7.37526H7.37941H7.38355H7.38767H7.39179H7.39588H7.39997H7.40404H7.4081H7.41215H7.41619H7.42021H7.42423H7.42823H7.43222H7.43619H7.44016H7.44411H7.44805H7.45199H7.45591H7.45982H7.46371H7.4676H7.47148H7.47534H7.4792H7.48304H7.48688H7.4907H7.49452H7.49832H7.50212H7.5059H7.50968H7.51344H7.5172H7.52095H7.52469H7.52841H7.53213H7.53584H7.53955H7.54324H7.54692H7.5506H7.55427H7.55793H7.56158H7.56522H7.56886H7.57249H7.57611H7.57972H7.58332H7.58692H7.59051H7.5941H7.59767H7.60124H7.6048H7.60836H7.61191H7.61545H7.61898H7.62251H7.62604H7.62955H7.63307H7.63657H7.64007H7.64356H7.64705H7.65053H7.65401H7.65748H7.66095H7.66441H7.66787H7.67132H7.67477H7.67821H7.68165H7.68509H7.68851H7.69194H7.69536H7.69878H7.70219H7.7056H7.70901H7.71241H7.71581H7.71921H7.7226H7.72599H7.72938H7.73276H7.73614H7.73952H7.74289H7.74627H7.74964H7.75301H7.75637H7.75974H7.7631H7.76646H7.76982H7.77318H7.77653H7.77989H7.78324H7.78659H7.78994H7.79329H7.79664H7.79999H7.80334H7.80668H7.81003H7.81338H7.81672H7.82007H7.82342H7.82676H7.83011H7.83345H7.8368H7.84015H7.8435H7.84685H7.8502H7.85355H7.8569H7.86025H7.86361H7.86696H7.87032H7.87368H7.87704H7.8804H7.88377H7.88713H7.8905H7.89387H7.89725H7.90062H7.904H7.90738H7.91076H7.91415H7.91754H7.92093H7.92433H7.92773H7.93113H7.93454H7.93795H7.94136H7.94478H7.9482H7.95162H7.95505H7.95849H7.96193H7.96537H7.96882H7.97227H7.97573H7.97919H7.98265H7.98613H7.9896H7.99309H7.99658H8.00007H8.00357H8.00707H8.01058H8.0141H8.01763H8.02115H8.02469H8.02823H8.03178H8.03534H8.0389H8.04247H8.04604H8.04963H8.05322H8.05681H8.06042H8.06403H8.06765H8.07128H8.07492H8.07856H8.08221H8.08587H8.08954H8.09321H8.0969H8.10059H8.10429H8.10801H8.11173H8.11545H8.11919H8.12294H8.12669H8.13046H8.13424H8.13802H8.14182H8.14562H8.14944H8.15326H8.15709H8.16094H8.1648H8.16866H8.17254H8.17643H8.18032H8.18423H8.18815H8.19208H8.19603H8.19998H8.20395H8.20792H8.21191H8.21591H8.21992H8.22395H8.22799H8.23203H8.2361H8.24017H8.24425H8.24835H8.25246H8.25659H8.26073H8.26488H8.26904H8.27322H8.27741H8.28161H8.28583H8.29006H8.2943H8.29856H8.30284H8.30712H8.31142H8.31574H8.32007H8.32441H8.32877H8.33315H8.33754H8.34194H8.34636H8.35079H8.35524H8.35971H8.36419H8.36869H8.3732H8.37773H8.38227H8.38683H8.39141H8.396H8.40061H8.40523H8.40988H8.41453H8.41921H8.4239H8.42861H8.43334H8.43808H8.44284H8.44762H8.45242H8.45723H8.46206H8.46691H8.47178H8.47667H8.48157H8.48649H8.49144H8.49639H8.50137H8.50637H8.51139H8.51642H8.52147H8.52655H8.53164H8.53675H8.54188H8.54703H8.5522H8.55739H8.5626H8.56783H8.57308H8.57835H8.58365H8.58896H8.59429H8.59964H8.60502H8.61041H8.61583H8.62126H8.62672H8.6322H8.6377H8.64322H8.64877H8.65433H8.65992H8.66553H8.67116H8.67681H8.68249H8.68819H8.69391H8.69965H8.70542H8.71121H8.71702H8.72286H8.72871H8.73459H8.7405H8.74643H8.75238H8.75836H8.76435H8.77038H8.77643H8.7825H8.78859H8.79471H8.80086H8.80703H8.81322H8.81944H8.82568H8.83195H8.83824H8.84456H8.8509H8.85727H8.86367H8.87009H8.87654H8.88301H8.88951H8.89603H8.90258H8.90916H8.91576H8.92239H8.92904H8.93573H8.94243H8.94917H8.95593H8.96272H8.96954H8.97639C9.45228 26.9985 9.89583 26.9457 10.2448 26.9043C10.3353 26.8935 10.4195 26.8835 10.4961 26.8754C10.6867 26.8551 10.8161 26.8483 10.8956 26.8585C10.8871 27.9103 10.654 28.3446 10.3625 28.5429C10.2083 28.6478 10.0161 28.7029 9.77904 28.7296C9.56632 28.7534 9.33387 28.7531 9.07535 28.7527C9.04278 28.7527 9.0098 28.7526 8.97639 28.7526H6.66375C6.63034 28.7526 6.59736 28.7527 6.56479 28.7527C6.30627 28.7531 6.07382 28.7534 5.8611 28.7296C5.62402 28.7029 5.43182 28.6478 5.2776 28.5429C4.98101 28.3411 4.74482 27.8948 4.74431 26.802C4.74612 26.8016 4.74809 26.8011 4.75025 26.8007C4.8179 26.7871 4.93891 26.7945 5.13546 26.8239C5.21071 26.8352 5.29378 26.8492 5.38351 26.8642C5.73262 26.9229 6.18245 26.9985 6.66375 26.9985Z" stroke="#5E718D" strokeWidth="0.4"/>
<path d="M2.25578 11.6789L2.18403 11.6016C2.18404 11.6016 2.18405 11.6016 2.18406 11.6016L2.25578 11.6789ZM1.72397 13.0287L1.85517 13.079L1.8487 13.1274L1.86929 13.1772C1.87866 13.1998 1.88351 13.2181 1.88511 13.2326L1.88509 13.2326L1.88536 13.2348C1.99528 14.1375 1.97911 15.1237 1.87633 16.1688L1.87632 16.1688L1.87612 16.1712C1.87323 16.2046 1.8622 16.2381 1.84379 16.2701L1.77919 16.3823L1.7575 16.3727L1.68661 16.3941C1.67179 16.3986 1.65835 16.401 1.64576 16.4015L1.64576 16.4015L1.64369 16.4016C1.29972 16.4209 0.928494 16.4057 0.607969 16.3644L0.607686 16.3644C0.500641 16.3507 0.410551 16.2614 0.395856 16.1448L0.395788 16.1443C0.262942 15.1122 0.183143 14.1369 0.201354 13.183L0.201361 13.1826C0.203724 13.0456 0.31688 12.9348 0.454542 12.9348C0.85733 12.9348 1.2954 12.9615 1.67262 13.0143L1.67262 13.0143L1.67434 13.0146C1.68563 13.0161 1.7021 13.0204 1.72397 13.0287ZM2.62341 16.8573V16.7554V16.5499V16.5456C2.62341 16.5014 2.65922 16.467 2.70041 16.467H3.13367C3.17478 16.467 3.21068 16.5013 3.21068 16.5456V16.9814C3.21068 17.0256 3.17487 17.06 3.13367 17.06H2.70041C2.65931 17.06 2.62341 17.0257 2.62341 16.9814V16.8857V16.8573ZM2.75199 11.5361L2.72774 11.4989L2.75367 11.4402H3.2121V11.5361H2.75199Z" stroke="#5E718D" strokeWidth="0.4"/>
<path d="M25.2936 6.60793C25.7113 11.9446 25.5774 17.4386 25.4211 20.6946C24.8662 20.6578 24.2203 20.6518 23.6947 20.6556C23.3977 20.6578 23.1375 20.663 22.9515 20.6678C22.8585 20.6702 22.784 20.6724 22.7327 20.6741L22.6736 20.6761L22.6624 20.6765L22.6475 20.6758C22.6314 20.6752 22.6089 20.6748 22.5809 20.6751C22.5251 20.6758 22.4468 20.6796 22.3535 20.6919C22.1675 20.7164 21.9165 20.7752 21.6617 20.9139C21.137 21.1996 20.641 21.7997 20.6095 22.9947L20.6041 23.2H20.8094H21.0041V23.2003L21.0158 23.1996C21.2801 23.1841 21.513 23.3982 21.5198 23.6829L21.1739 26.137L21.172 26.1509V26.1649C21.172 26.444 20.9524 26.6622 20.693 26.6622H2.06688C1.84461 26.6622 1.66173 26.4799 1.66173 26.2535V23.7001C1.66173 23.4737 1.84461 23.2914 2.06688 23.2914H2.59532H2.82019L2.79395 23.0681C2.75449 22.732 2.71636 22.3487 2.68245 21.9293L2.67444 21.8304L2.59081 21.7769L2.30244 21.5926L2.30228 21.5925C1.94535 21.3648 1.74554 21.0107 1.74554 20.6466V19.1692C1.74554 18.7782 1.97592 18.3995 2.37885 18.1772C2.37902 18.1771 2.37918 18.177 2.37935 18.177L2.48345 18.1204L2.58401 18.0657L2.58781 17.9513C2.68545 15.0106 3.18942 11.6765 4.61807 9.11746C6.00946 6.62562 8.61234 4.42688 11.3899 4.35322C11.3902 4.35321 11.3905 4.3532 11.3909 4.35319L24.5598 4.13889L24.5643 4.14066C24.5752 4.14498 24.6052 4.16331 24.6493 4.22068C24.6916 4.27577 24.7366 4.35327 24.7826 4.45227C24.8745 4.65008 24.9594 4.90979 25.0331 5.18866C25.1661 5.69194 25.2558 6.2306 25.2869 6.52308L25.2936 6.60793Z" stroke="#5E718D" strokeWidth="0.4"/>
<path d="M2.72592 15.5164L2.70237 15.5016C2.60429 15.4312 2.56257 15.3343 2.56893 15.2444C2.673 13.8372 2.95084 12.4097 3.5242 11.1598C3.5778 11.0439 3.72595 10.9461 3.915 10.9461H16.6189C16.9218 10.9461 17.0652 11.1683 17.0267 11.328C16.8216 12.1791 16.4826 13.7585 16.4149 15.1496C16.4101 15.2352 16.3607 15.325 16.2584 15.389L16.2584 15.389L15.4271 15.9098C15.427 15.9099 15.4268 15.91 15.4266 15.9102C15.3529 15.9555 15.2618 15.9815 15.1671 15.9815H3.60959C3.51397 15.9815 3.42264 15.9551 3.35219 15.9101L3.35095 15.9093L2.72592 15.5164Z" stroke="#5E718D" strokeWidth="0.4"/>
<path d="M18.9934 11.1409L19.0037 11.112C19.0414 11.0304 19.0899 11.0164 19.1023 11.0162L19.1026 11.0161L21.9192 10.9476C21.9193 10.9476 21.9193 10.9476 21.9193 10.9476C21.9311 10.9473 21.9597 10.9529 21.9933 10.9984C22.0269 11.0439 22.0542 11.1172 22.0542 11.2077V13.7468C22.0542 13.8272 22.0317 13.8984 22.0002 13.9451L21.9961 13.9513L21.9923 13.9578L19.1863 18.8778C19.1531 18.9256 19.122 18.9322 19.1105 18.9322H18.3363C18.3259 18.9322 18.2997 18.927 18.2677 18.8855C18.2358 18.8442 18.2082 18.7769 18.2036 18.6918C18.1489 17.6002 18.2057 16.1019 18.3478 14.6767C18.4904 13.2469 18.7167 11.9129 18.9934 11.1409ZM21.9146 10.7476L19.0977 10.8162L22.1661 14.0569C22.2229 13.9726 22.2542 13.8611 22.2542 13.7468V11.2077C22.2542 10.9505 22.1007 10.7433 21.9146 10.7476Z" stroke="#5E718D" strokeWidth="0.4"/>
<path d="M2.36957 25.4303C2.36237 25.4049 2.35596 25.3793 2.35035 25.3535L2.35037 25.3535L2.34986 25.3513C2.34073 25.3115 2.33516 25.2709 2.33253 25.2303H3.3084C3.40357 25.2303 3.48028 25.336 3.48028 25.466V26.1519C3.48028 26.2905 3.39505 26.4005 3.29419 26.3876C3.21485 26.3778 3.1369 26.3693 3.06068 26.361C2.98269 26.3525 2.90652 26.3442 2.83252 26.3348L2.36957 25.4303ZM2.36957 25.4303H3.2747C3.27765 25.4387 3.28028 25.4507 3.28028 25.466V26.1519C3.28028 26.1644 3.27858 26.1753 3.27614 26.184C3.21009 26.1761 3.14535 26.169 3.08295 26.1622L3.07968 26.1619C3.0175 26.1551 2.95779 26.1486 2.89983 26.1416C2.79185 26.0733 2.69482 25.9894 2.61316 25.8928C2.50121 25.76 2.41775 25.6 2.36957 25.4303ZM3.24021 23.6771C3.28518 23.6771 3.32367 23.7096 3.33142 23.7546V23.77V24.4787C3.24662 24.5049 3.15317 24.5175 3.05756 24.5159L3.05716 24.5159C2.73705 24.511 2.43251 24.3539 2.27757 24.1325L2.27749 24.1324C2.21707 24.0462 2.17844 23.9487 2.16188 23.8487C2.15302 23.7952 2.15073 23.7371 2.15489 23.6771H3.24021ZM14.7974 23.77V23.7546C14.8052 23.7096 14.8436 23.6771 14.8886 23.6771H15.9739C15.9781 23.7371 15.9758 23.7952 15.9669 23.8487C15.9504 23.9487 15.9118 24.0462 15.8513 24.1324L15.8513 24.1325C15.6963 24.3539 15.3918 24.511 15.0717 24.5159L15.0713 24.5159C14.9757 24.5175 14.8822 24.5049 14.7974 24.4787V23.77ZM14.8541 25.4303H15.7588C15.7098 25.6004 15.6271 25.7596 15.5151 25.8935L15.515 25.8936C15.4342 25.9903 15.3376 26.0732 15.229 26.1416C15.1711 26.1486 15.1116 26.1551 15.0496 26.1619L15.0427 26.1626C14.9815 26.1693 14.918 26.1762 14.8529 26.184C14.8505 26.1759 14.8485 26.1652 14.8485 26.1519V25.466C14.8485 25.4507 14.8512 25.4387 14.8541 25.4303Z" stroke="#5E718D" strokeWidth="0.4"/>
<path d="M11.2293 18.2296L11.2134 18.2503L10.9137 18.6418C10.792 18.8009 10.6047 18.8976 10.4024 18.9017L10.4023 18.9017L6.49632 18.9789C6.49624 18.9789 6.49616 18.9789 6.49607 18.9789L6.4958 18.9789L6.49185 18.7789C6.364 18.7818 6.24041 18.7303 6.15092 18.6374L11.2293 18.2296ZM11.2293 18.2296L11.413 17.9896L11.4131 17.9895L11.4457 17.9469L13.1044 17.9273C13.3928 17.923 13.6158 18.1859 13.5633 18.4717C13.4084 19.3204 13.0732 20.082 12.5249 20.7422C12.1484 21.198 11.5859 21.4552 10.9964 21.4552H5.6864C5.0017 21.4552 4.35962 21.1094 3.99738 20.525C3.63515 19.9391 3.42917 19.279 3.33399 18.5689L11.1566 18.2069L11.2128 18.2493C11.218 18.2424 11.2235 18.2358 11.2293 18.2296ZM11.2293 18.2296C11.2771 18.1781 11.3445 18.148 11.4146 18.1473L11.4149 18.1473L13.1068 18.1273L13.1074 18.1273C13.2694 18.1249 13.3964 18.2736 13.3666 18.4355L13.3665 18.4358C13.2173 19.2539 12.8954 19.983 12.371 20.6144L12.3707 20.6148C12.0333 21.0233 11.528 21.2552 10.9964 21.2552H5.6864C5.06878 21.2552 4.4921 20.9434 4.16745 20.4197M11.2293 18.2296L4.16745 20.4197M4.16745 20.4197C3.82312 19.8628 3.62452 19.231 3.53222 18.5423L3.53222 18.5423L3.53211 18.5414C3.50987 18.3808 3.63133 18.2418 3.78636 18.2402L3.78666 18.2402L5.36194 18.2216C5.36195 18.2216 5.36197 18.2216 5.36198 18.2216C5.362 18.2216 5.36202 18.2216 5.36204 18.2216C5.43279 18.2208 5.50205 18.2497 5.55216 18.3017C5.5522 18.3017 5.55225 18.3018 5.55229 18.3018L4.16745 20.4197Z" stroke="#5E718D" strokeWidth="0.4"/>
<path d="M11.9115 23.2928H12.1467L11.9069 23.68C11.7109 23.9972 11.3728 24.1859 11.012 24.1801M11.9115 23.2928L12.0353 23.0928H5.44226L5.53147 23.2928M11.9115 23.2928L11.7369 23.5747L11.7368 23.5749C11.5764 23.8344 11.3029 23.9847 11.0152 23.9802L11.0153 23.9802L11.012 24.1801M11.9115 23.2928H5.53147M5.53147 23.2928H5.31248L5.39089 23.4686C5.55993 23.8486 5.92217 24.0944 6.32276 24.1016M5.53147 23.2928L5.57354 23.3871L5.57363 23.3873C5.71256 23.6997 6.00699 23.8959 6.32625 23.9016L6.32611 23.9016L6.32276 24.1016M6.32276 24.1016L11.012 24.1801M6.32276 24.1016L6.32633 23.9016L11.0151 23.9802L11.012 24.1801" stroke="#5E718D" strokeWidth="0.4"/>
<path d="M20.6432 12.9424H20.6715C20.7953 12.9556 20.8928 13.0593 20.895 13.1859L20.895 13.1863C20.9132 14.1342 20.8334 15.1022 20.702 16.1284C20.6861 16.2454 20.5976 16.3326 20.4915 16.3462L20.4911 16.3462C20.172 16.3875 19.8037 16.4028 19.4612 16.3835L19.4612 16.3834L19.4566 16.3833C19.4416 16.3828 19.4236 16.3792 19.399 16.37L19.3227 16.3416L19.3097 16.3473L19.2547 16.2428C19.2422 16.219 19.2333 16.19 19.2299 16.1563C19.1286 15.1183 19.1124 14.1379 19.2223 13.2396L19.2224 13.239C19.2358 13.1264 19.3215 13.0385 19.4323 13.0221C19.4594 13.0188 19.487 13.0156 19.5151 13.0123C19.535 13.01 19.5552 13.0077 19.5757 13.0053L19.7448 12.9853L19.7448 12.9852L19.8741 12.9746C20.1288 12.9536 20.3932 12.9424 20.6432 12.9424ZM18.4289 16.7373V16.8418V16.8675V16.9632C18.4289 17.0068 18.3937 17.0404 18.3533 17.0404H17.9229C17.8824 17.0404 17.8473 17.0068 17.8473 16.9632V16.5303C17.8473 16.4867 17.8824 16.4531 17.9229 16.4531H18.3533C18.3937 16.4531 18.4289 16.4867 18.4289 16.5303V16.5346V16.7373ZM19.0877 11.4563L19.1139 11.5142L19.0895 11.5522H18.6328V11.4563H19.0877Z" stroke="#5E718D" strokeWidth="0.4"/>
<path d="M24.5497 3.94043C22.4174 4.09475 19.5579 6.82245 18.5962 9.02004C16.0946 14.7312 16.8461 26.8651 16.8461 26.8651" stroke="#5E718D" strokeWidth="0.4" strokeLinecap="round" stroke-linejoin="round"/>
<path d="M2.74158 23.0929L20.8108 23.0029" stroke="#5E718D" strokeWidth="0.4" strokeLinecap="round" stroke-linejoin="round"/>
<path d="M2.38788 17.9449L16.92 17.9277" stroke="#5E718D" strokeWidth="0.4" strokeLinecap="round" stroke-linejoin="round"/>
</svg>
