<svg width="52" height="31" viewBox="0 0 52 31" fill="none" xmlns="http://www.w3.org/2000/svg">
<g clip-path="url(#clip0_1252_35471)">
<path d="M0.0974731 8.26767L40.7457 3.16406" stroke="#5E718D" strokeWidth="0.4" strokeLinecap="round" stroke-linejoin="bevel"/>
<path d="M0.0974731 22.2124L40.5066 30.3823" stroke="#5E718D" strokeWidth="0.4" strokeLinecap="round" stroke-linejoin="round"/>
<path d="M7.48035 22.8442L40.5066 28.9769" stroke="#5E718D" strokeWidth="0.4" strokeLinecap="round" stroke-linejoin="bevel"/>
<path d="M0.0974731 21.4731L4.77662 22.3403" stroke="#5E718D" strokeWidth="0.4" strokeLinecap="round" stroke-linejoin="bevel"/>
<path d="M40.2841 1.82409L40.7549 1.75879" stroke="#5E718D" strokeWidth="0.4" strokeLinecap="round" stroke-linejoin="round"/>
<path d="M37.8138 2.17392L39.2393 1.97803" stroke="#5E718D" strokeWidth="0.4" strokeLinecap="round" stroke-linejoin="round"/>
<path d="M35.397 2.51601L36.7066 2.33057" stroke="#5E718D" strokeWidth="0.4" strokeLinecap="round" stroke-linejoin="round"/>
<path d="M33.2488 2.8219L34.3248 2.67041" stroke="#5E718D" strokeWidth="0.4" strokeLinecap="round" stroke-linejoin="round"/>
<path d="M30.9772 3.14565L32.0974 2.98633" stroke="#5E718D" strokeWidth="0.4" strokeLinecap="round" stroke-linejoin="round"/>
<path d="M28.908 3.43828L29.9914 3.28418" stroke="#5E718D" strokeWidth="0.4" strokeLinecap="round" stroke-linejoin="round"/>
<path d="M27.1258 3.69178L28.0068 3.56641" stroke="#5E718D" strokeWidth="0.4" strokeLinecap="round" stroke-linejoin="round"/>
<path d="M25.2497 3.95789L26.1215 3.83252" stroke="#5E718D" strokeWidth="0.4" strokeLinecap="round" stroke-linejoin="round"/>
<path d="M23.5704 4.19547L24.3301 4.08838" stroke="#5E718D" strokeWidth="0.4" strokeLinecap="round" stroke-linejoin="round"/>
<path d="M21.9077 4.43358L22.6379 4.3291" stroke="#5E718D" strokeWidth="0.4" strokeLinecap="round" stroke-linejoin="round"/>
<path d="M20.3223 4.65819L21.058 4.55371" stroke="#5E718D" strokeWidth="0.4" strokeLinecap="round" stroke-linejoin="round"/>
<path d="M18.7736 4.87759L19.5332 4.77051" stroke="#5E718D" strokeWidth="0.4" strokeLinecap="round" stroke-linejoin="round"/>
<path d="M17.475 5.06014L18.0765 4.97656" stroke="#5E718D" strokeWidth="0.4" strokeLinecap="round" stroke-linejoin="round"/>
<path d="M15.9871 5.27193L16.6731 5.17529" stroke="#5E718D" strokeWidth="0.4" strokeLinecap="round" stroke-linejoin="round"/>
<path d="M14.7584 5.44669L15.3304 5.36572" stroke="#5E718D" strokeWidth="0.4" strokeLinecap="round" stroke-linejoin="round"/>
<path d="M13.7358 5.59294L14.111 5.53809" stroke="#5E718D" strokeWidth="0.4" strokeLinecap="round" stroke-linejoin="round"/>
<path d="M12.3489 5.78895L12.8658 5.71582" stroke="#5E718D" strokeWidth="0.4" strokeLinecap="round" stroke-linejoin="round"/>
<path d="M11.3668 5.92721L11.6886 5.88281" stroke="#5E718D" strokeWidth="0.4" strokeLinecap="round" stroke-linejoin="round"/>
<path d="M10.2761 6.0841L10.552 6.04492" stroke="#5E718D" strokeWidth="0.4" strokeLinecap="round" stroke-linejoin="round"/>
<path d="M9.09155 6.25116L9.53666 6.18848" stroke="#5E718D" strokeWidth="0.4" strokeLinecap="round" stroke-linejoin="round"/>
<path d="M8.14801 6.38459L8.50299 6.33496" stroke="#5E718D" strokeWidth="0.4" strokeLinecap="round" stroke-linejoin="round"/>
<path d="M7.15668 6.52555L7.55212 6.4707" stroke="#5E718D" strokeWidth="0.4" strokeLinecap="round" stroke-linejoin="round"/>
<path d="M6.34186 6.64301L6.59016 6.60645" stroke="#5E718D" strokeWidth="0.4" strokeLinecap="round" stroke-linejoin="round"/>
<path d="M5.4314 6.77092L5.63004 6.74219" stroke="#5E718D" strokeWidth="0.4" strokeLinecap="round" stroke-linejoin="round"/>
<path d="M4.43817 6.91193L4.79683 6.8623" stroke="#5E718D" strokeWidth="0.4" strokeLinecap="round" stroke-linejoin="round"/>
<path d="M3.66199 7.02192L3.92684 6.98535" stroke="#5E718D" strokeWidth="0.4" strokeLinecap="round" stroke-linejoin="round"/>
<path d="M2.91895 7.12883L3.11391 7.1001" stroke="#5E718D" strokeWidth="0.4" strokeLinecap="round" stroke-linejoin="round"/>
<path d="M2.05078 7.25158L2.32483 7.2124" stroke="#5E718D" strokeWidth="0.4" strokeLinecap="round" stroke-linejoin="round"/>
<path d="M1.44568 7.33794L1.55236 7.32227" stroke="#5E718D" strokeWidth="0.4" strokeLinecap="round" stroke-linejoin="round"/>
<path d="M0.0974731 7.52866L0.140575 7.52344" stroke="#5E718D" strokeWidth="0.4" strokeLinecap="round" stroke-linejoin="bevel"/>
<path d="M42.848 3.10107L50.4516 4.45925" stroke="#5E718D" strokeWidth="0.4" strokeLinecap="round" stroke-linejoin="bevel"/>
<path d="M42.848 1.3877L50.4516 3.04101" stroke="#5E718D" strokeWidth="0.4" strokeLinecap="round" stroke-linejoin="round"/>
<path d="M42.5427 28.9773L50.4976 26.812" stroke="#5E718D" strokeWidth="0.4" strokeLinecap="round" stroke-linejoin="bevel"/>
<path d="M42.9105 30.3824L50.4516 28.084" stroke="#5E718D" strokeWidth="0.4" strokeLinecap="round" stroke-linejoin="round"/>
<path d="M50.4516 28.1701L51.1928 27.9429" stroke="#5E718D" strokeWidth="0.4" strokeLinecap="round" stroke-linejoin="round"/>
<path d="M43.1864 6.4156L42.0056 6.26672V5.06787L43.1864 5.21675" stroke="#5E718D" strokeWidth="0.4" strokeLinecap="round" stroke-linejoin="bevel"/>
<path d="M42.0056 2.71484L42.848 2.81932" stroke="#5E718D" strokeWidth="0.4" strokeLinecap="round" stroke-linejoin="bevel"/>
<path d="M42.0056 1.09277L42.848 1.19986" stroke="#5E718D" strokeWidth="0.4" strokeLinecap="round" stroke-linejoin="round"/>
<path d="M39.3497 1.64404L40.284 1.82426" stroke="#5E718D" strokeWidth="0.4" strokeLinecap="round" stroke-linejoin="round"/>
<path d="M50.4516 2.93652L51.1248 3.13764" stroke="#5E718D" strokeWidth="0.4" strokeLinecap="round" stroke-linejoin="round"/>
<path d="M50.4516 4.2793L51.1248 4.42295" stroke="#5E718D" strokeWidth="0.4" strokeLinecap="round" stroke-linejoin="bevel"/>
<path d="M40.891 4.04683L42.0056 3.89795V5.06807L40.891 5.21695V4.04683Z" stroke="#5E718D" strokeWidth="0.4" strokeLinecap="round" stroke-linejoin="bevel"/>
<path d="M40.7549 2.87939L42.0056 2.71484" stroke="#5E718D" strokeWidth="0.4" strokeLinecap="round" stroke-linejoin="bevel"/>
<path d="M40.7549 1.25976L42.0056 1.09521" stroke="#5E718D" strokeWidth="0.4" strokeLinecap="round" stroke-linejoin="round"/>
<path d="M40.891 6.41597L42.0056 6.26709V7.43721L40.891 7.58609V6.41597Z" stroke="#5E718D" strokeWidth="0.4" strokeLinecap="round" stroke-linejoin="bevel"/>
<path d="M43.1864 16.7145L42.0056 16.7876V15.5914L43.1864 15.5156" stroke="#5E718D" strokeWidth="0.4" strokeLinecap="round" stroke-linejoin="bevel"/>
<path d="M40.891 14.3452L42.0056 14.4183V15.5911L40.891 15.5153V14.3452Z" stroke="#5E718D" strokeWidth="0.4" strokeLinecap="round" stroke-linejoin="bevel"/>
<path d="M40.891 16.7144L42.0056 16.7875V17.9576L40.891 17.8845V16.7144Z" stroke="#5E718D" strokeWidth="0.4" strokeLinecap="round" stroke-linejoin="bevel"/>
<path d="M43.1864 26.8248L42.0056 26.9711V25.7749L43.1864 25.626" stroke="#5E718D" strokeWidth="0.4" strokeLinecap="round" stroke-linejoin="bevel"/>
<path d="M40.891 24.4561L42.0056 24.6049V25.7751L40.891 25.6262V24.4561Z" stroke="#5E718D" strokeWidth="0.4" strokeLinecap="round" stroke-linejoin="bevel"/>
<path d="M40.891 26.8252L42.0056 26.9715V28.1442L40.891 27.9953V26.8252Z" stroke="#5E718D" strokeWidth="0.4" strokeLinecap="round" stroke-linejoin="bevel"/>
<path d="M42.0387 30.8158L40.5066 30.5181" stroke="#5E718D" strokeWidth="0.4" strokeLinecap="round" stroke-linejoin="round"/>
<path d="M40.5066 30.518V28.9665L40.7549 28.8542V1.25977" stroke="#5E718D" strokeWidth="0.4" strokeLinecap="round" stroke-linejoin="round"/>
<path d="M42.1288 5.08382V2.76709" stroke="#5E718D" strokeWidth="0.4" strokeLinecap="round" stroke-linejoin="bevel"/>
<path d="M42.1288 15.5834V6.30859" stroke="#5E718D" strokeWidth="0.4" strokeLinecap="round" stroke-linejoin="bevel"/>
<path d="M42.1288 25.7594V16.7876" stroke="#5E718D" strokeWidth="0.4" strokeLinecap="round" stroke-linejoin="bevel"/>
<path d="M42.1288 28.8544V26.9712" stroke="#5E718D" strokeWidth="0.4" strokeLinecap="round" stroke-linejoin="bevel"/>
<path d="M42.9105 30.5261V29.0112" stroke="#5E718D" strokeWidth="0.4" strokeLinecap="round" stroke-linejoin="bevel"/>
<path d="M50.4516 28.1703V26.8252" stroke="#5E718D" strokeWidth="0.4" strokeLinecap="round" stroke-linejoin="bevel"/>
<path d="M42.848 1.19971V3.10115" stroke="#5E718D" strokeWidth="0.4" strokeLinecap="round" stroke-linejoin="bevel"/>
<path d="M50.4516 2.93652V4.45925" stroke="#5E718D" strokeWidth="0.4" strokeLinecap="round" stroke-linejoin="bevel"/>
<path d="M50.4976 4.29492V6.30345" stroke="#5E718D" strokeWidth="0.4" strokeLinecap="round" stroke-linejoin="bevel"/>
<path d="M50.4976 24.9756V26.8117" stroke="#5E718D" strokeWidth="0.4" strokeLinecap="round" stroke-linejoin="bevel"/>
<path d="M51.1248 3.1377V4.42274" stroke="#5E718D" strokeWidth="0.4" strokeLinecap="round" stroke-linejoin="round"/>
<path d="M43.1331 4.13574L46.4566 4.72864V26.8486L43.1331 27.64" stroke="#5E718D" strokeWidth="0.4" strokeLinecap="round" stroke-linejoin="bevel"/>
<path d="M47.231 4.87207L50.1058 5.39445V25.9264L47.231 26.6003" stroke="#5E718D" strokeWidth="0.4" strokeLinecap="round" stroke-linejoin="bevel"/>
<path d="M47.231 15.2543L50.1058 15.189" stroke="#5E718D" strokeWidth="0.4" strokeLinecap="round" stroke-linejoin="bevel"/>
<path d="M47.231 19.368L50.1058 19.1538" stroke="#5E718D" strokeWidth="0.4" strokeLinecap="round" stroke-linejoin="bevel"/>
<path d="M43.1331 19.6633L46.4566 19.376" stroke="#5E718D" strokeWidth="0.4" strokeLinecap="round" stroke-linejoin="bevel"/>
<path d="M43.1864 15.3954L46.4567 15.3301" stroke="#5E718D" strokeWidth="0.4" strokeLinecap="round" stroke-linejoin="bevel"/>
<path d="M43.1331 5.21194V4.20898" stroke="#5E718D" strokeWidth="0.4" strokeLinecap="round" stroke-linejoin="round"/>
<path d="M43.1331 15.5158V6.41602" stroke="#5E718D" strokeWidth="0.4" strokeLinecap="round" stroke-linejoin="round"/>
<path d="M43.1331 25.6263V16.7485" stroke="#5E718D" strokeWidth="0.4" strokeLinecap="round" stroke-linejoin="round"/>
<path d="M43.1331 27.564V26.8301" stroke="#5E718D" strokeWidth="0.4" strokeLinecap="round" stroke-linejoin="round"/>
<path d="M0.0974731 7.52832V8.26748" stroke="#5E718D" strokeWidth="0.4" strokeLinecap="round" stroke-linejoin="round"/>
<path d="M0.0974731 22.2124V21.4732H0.180241V8.26758" stroke="#5E718D" strokeWidth="0.4" strokeLinecap="round" stroke-linejoin="round"/>
<path d="M4.78766 8.52898L7.4675 8.24951" stroke="#5E718D" strokeWidth="0.4" strokeLinecap="round" stroke-linejoin="bevel"/>
<path d="M4.78766 22.4214L7.4675 22.9124" stroke="#5E718D" strokeWidth="0.4" strokeLinecap="round" stroke-linejoin="bevel"/>
<path d="M4.78766 8.52881V22.4214" stroke="#5E718D" strokeWidth="0.4" strokeLinecap="round" stroke-linejoin="bevel"/>
<path d="M7.46747 8.24951V22.9126" stroke="#5E718D" strokeWidth="0.4" strokeLinecap="round" stroke-linejoin="bevel"/>
<path d="M0.976624 9.22593L3.65646 8.94385" stroke="#5E718D" strokeWidth="0.4" strokeLinecap="round" stroke-linejoin="bevel"/>
<path d="M0.976624 16.3306L3.65646 16.4194" stroke="#5E718D" strokeWidth="0.4" strokeLinecap="round" stroke-linejoin="bevel"/>
<path d="M0.976624 9.22607V16.3304" stroke="#5E718D" strokeWidth="0.4" strokeLinecap="round" stroke-linejoin="bevel"/>
<path d="M3.65649 8.94385V16.419" stroke="#5E718D" strokeWidth="0.4" strokeLinecap="round" stroke-linejoin="bevel"/>
<path d="M44.873 19.4829V26.9894" stroke="#5E718D" strokeWidth="0.4" strokeLinecap="round" stroke-linejoin="bevel"/>
<path d="M44.873 4.67383V15.3616" stroke="#5E718D" strokeWidth="0.4" strokeLinecap="round" stroke-linejoin="bevel"/>
<path d="M48.7208 19.3159V26.018" stroke="#5E718D" strokeWidth="0.4" strokeLinecap="round" stroke-linejoin="bevel"/>
<path d="M50.9739 16.3018V23.8031" stroke="#5E718D" strokeWidth="0.4" strokeLinecap="round" stroke-linejoin="bevel"/>
<path d="M50.9739 24.8999V26.6708" stroke="#5E718D" strokeWidth="0.4" strokeLinecap="round" stroke-linejoin="bevel"/>
<path d="M51.1928 26.731V27.9429" stroke="#5E718D" strokeWidth="0.4" strokeLinecap="round" stroke-linejoin="round"/>
<path d="M50.9739 7.47363V15.244" stroke="#5E718D" strokeWidth="0.4" strokeLinecap="round" stroke-linejoin="bevel"/>
<path d="M50.9739 4.38916V6.38724" stroke="#5E718D" strokeWidth="0.4" strokeLinecap="round" stroke-linejoin="bevel"/>
<path d="M48.7208 5.36572V15.189" stroke="#5E718D" strokeWidth="0.4" strokeLinecap="round" stroke-linejoin="bevel"/>
<path d="M43.1331 27.6396L42.4967 29.0814" stroke="#5E718D" strokeWidth="0.4" strokeLinecap="round" stroke-linejoin="bevel"/>
<path d="M42.0645 29.228L42.9105 29.0112" stroke="#5E718D" strokeWidth="0.4" strokeLinecap="round" stroke-linejoin="bevel"/>
<path d="M42.0387 30.8158L42.9105 30.5259" stroke="#5E718D" strokeWidth="0.4" strokeLinecap="round" stroke-linejoin="round"/>
<path d="M49.3297 15.3484V16.9729L49.7269 16.9599V17.3595L49.3297 17.3726V19.0494L50.0194 19.0024V15.3301L49.3297 15.3484Z" stroke="#5E718D" strokeWidth="0.4" strokeLinecap="round" stroke-linejoin="bevel"/>
<path d="M51.1928 6.43909L50.4516 6.33984V7.37415L51.1928 7.4734V6.43909Z" stroke="#5E718D" strokeWidth="0.4" strokeLinecap="round" stroke-linejoin="bevel"/>
<path d="M50.2529 6.43909L50.4516 6.33984V7.37415L50.2529 7.30624V6.43909Z" stroke="#5E718D" strokeWidth="0.4" strokeLinecap="round" stroke-linejoin="bevel"/>
<path d="M51.1928 15.2676L50.4516 15.2441V16.2758L51.1928 16.3019V15.2676Z" stroke="#5E718D" strokeWidth="0.4" strokeLinecap="round" stroke-linejoin="bevel"/>
<path d="M50.2529 15.3303L50.4516 15.2441V16.2758L50.2529 16.2184V15.3303Z" stroke="#5E718D" strokeWidth="0.4" strokeLinecap="round" stroke-linejoin="bevel"/>
<path d="M51.1928 23.8032L50.4516 23.926V24.9603L51.1928 24.8375V23.8032Z" stroke="#5E718D" strokeWidth="0.4" strokeLinecap="round" stroke-linejoin="bevel"/>
<path d="M51.1928 24.8375V23.8032" stroke="#5E718D" strokeWidth="0.4" strokeLinecap="round" stroke-linejoin="round"/>
<path d="M51.1285 23.8029V22.9175" stroke="#5E718D" strokeWidth="0.4" strokeLinecap="round" stroke-linejoin="round"/>
<path d="M51.1285 25.7463V24.8608" stroke="#5E718D" strokeWidth="0.4" strokeLinecap="round" stroke-linejoin="round"/>
<path d="M50.2529 24.025L50.4516 23.9258V24.9601L50.2529 24.8843V24.025Z" stroke="#5E718D" strokeWidth="0.4" strokeLinecap="round" stroke-linejoin="bevel"/>
<path d="M39.3497 1.64404L39.2393 1.97836" stroke="#5E718D" strokeWidth="0.4" strokeLinecap="round" stroke-linejoin="round"/>
<path d="M36.8721 1.99365L37.8138 2.17387" stroke="#5E718D" strokeWidth="0.4" strokeLinecap="round" stroke-linejoin="round"/>
<path d="M36.8721 1.99365L36.7066 2.33058" stroke="#5E718D" strokeWidth="0.4" strokeLinecap="round" stroke-linejoin="round"/>
<path d="M34.4847 2.34375L35.397 2.51613" stroke="#5E718D" strokeWidth="0.4" strokeLinecap="round" stroke-linejoin="round"/>
<path d="M34.4848 2.34375L34.3248 2.67023" stroke="#5E718D" strokeWidth="0.4" strokeLinecap="round" stroke-linejoin="round"/>
<path d="M32.2684 2.63623L33.2488 2.82167" stroke="#5E718D" strokeWidth="0.4" strokeLinecap="round" stroke-linejoin="round"/>
<path d="M32.2684 2.63623L32.0974 2.98361" stroke="#5E718D" strokeWidth="0.4" strokeLinecap="round" stroke-linejoin="round"/>
<path d="M30.1367 2.98389L30.9773 3.14582" stroke="#5E718D" strokeWidth="0.4" strokeLinecap="round" stroke-linejoin="round"/>
<path d="M30.1367 2.98389L29.9914 3.28425" stroke="#5E718D" strokeWidth="0.4" strokeLinecap="round" stroke-linejoin="round"/>
<path d="M28.1484 3.29443L28.9081 3.43809" stroke="#5E718D" strokeWidth="0.4" strokeLinecap="round" stroke-linejoin="round"/>
<path d="M28.1484 3.29443L28.0068 3.56607" stroke="#5E718D" strokeWidth="0.4" strokeLinecap="round" stroke-linejoin="round"/>
<path d="M26.2723 3.52686L27.1258 3.6914" stroke="#5E718D" strokeWidth="0.4" strokeLinecap="round" stroke-linejoin="round"/>
<path d="M26.2723 3.52686L26.1215 3.83244" stroke="#5E718D" strokeWidth="0.4" strokeLinecap="round" stroke-linejoin="round"/>
<path d="M24.4735 3.80908L25.2497 3.95796" stroke="#5E718D" strokeWidth="0.4" strokeLinecap="round" stroke-linejoin="round"/>
<path d="M24.4735 3.80908L24.3301 4.08855" stroke="#5E718D" strokeWidth="0.4" strokeLinecap="round" stroke-linejoin="round"/>
<path d="M22.7759 4.04443L23.5704 4.19592" stroke="#5E718D" strokeWidth="0.4" strokeLinecap="round" stroke-linejoin="round"/>
<path d="M22.7759 4.04443L22.6379 4.32913" stroke="#5E718D" strokeWidth="0.4" strokeLinecap="round" stroke-linejoin="round"/>
<path d="M21.183 4.29492L21.9077 4.43335" stroke="#5E718D" strokeWidth="0.4" strokeLinecap="round" stroke-linejoin="round"/>
<path d="M21.1831 4.29492L21.058 4.5535" stroke="#5E718D" strokeWidth="0.4" strokeLinecap="round" stroke-linejoin="round"/>
<path d="M19.6509 4.52979L20.3223 4.65777" stroke="#5E718D" strokeWidth="0.4" strokeLinecap="round" stroke-linejoin="round"/>
<path d="M19.6509 4.52979L19.5332 4.77008" stroke="#5E718D" strokeWidth="0.4" strokeLinecap="round" stroke-linejoin="round"/>
<path d="M18.1795 4.76514L18.7736 4.87745" stroke="#5E718D" strokeWidth="0.4" strokeLinecap="round" stroke-linejoin="round"/>
<path d="M18.1795 4.76514L18.0765 4.9767" stroke="#5E718D" strokeWidth="0.4" strokeLinecap="round" stroke-linejoin="round"/>
<path d="M16.7927 4.93213L17.475 5.06011" stroke="#5E718D" strokeWidth="0.4" strokeLinecap="round" stroke-linejoin="round"/>
<path d="M16.7926 4.93213L16.6731 5.17503" stroke="#5E718D" strokeWidth="0.4" strokeLinecap="round" stroke-linejoin="round"/>
<path d="M15.4279 5.16455L15.9871 5.27164" stroke="#5E718D" strokeWidth="0.4" strokeLinecap="round" stroke-linejoin="round"/>
<path d="M15.4279 5.16455L15.3304 5.36566" stroke="#5E718D" strokeWidth="0.4" strokeLinecap="round" stroke-linejoin="round"/>
<path d="M14.2122 5.33203L14.7584 5.44695" stroke="#5E718D" strokeWidth="0.4" strokeLinecap="round" stroke-linejoin="round"/>
<path d="M14.2121 5.33203L14.111 5.53837" stroke="#5E718D" strokeWidth="0.4" strokeLinecap="round" stroke-linejoin="round"/>
<path d="M12.9964 5.44678L13.7487 5.59043" stroke="#5E718D" strokeWidth="0.4" strokeLinecap="round" stroke-linejoin="round"/>
<path d="M12.9964 5.44678L12.8658 5.7158" stroke="#5E718D" strokeWidth="0.4" strokeLinecap="round" stroke-linejoin="round"/>
<path d="M11.788 5.68164L12.3489 5.78873" stroke="#5E718D" strokeWidth="0.4" strokeLinecap="round" stroke-linejoin="round"/>
<path d="M11.788 5.68164L11.6887 5.88276" stroke="#5E718D" strokeWidth="0.4" strokeLinecap="round" stroke-linejoin="round"/>
<path d="M10.6733 5.79688L11.3668 5.92747" stroke="#5E718D" strokeWidth="0.4" strokeLinecap="round" stroke-linejoin="round"/>
<path d="M10.6734 5.79688L10.552 6.045" stroke="#5E718D" strokeWidth="0.4" strokeLinecap="round" stroke-linejoin="round"/>
<path d="M9.64703 5.96387L10.2761 6.08401" stroke="#5E718D" strokeWidth="0.4" strokeLinecap="round" stroke-linejoin="round"/>
<path d="M9.64704 5.96387L9.53668 6.18849" stroke="#5E718D" strokeWidth="0.4" strokeLinecap="round" stroke-linejoin="round"/>
<path d="M8.59131 6.15479L9.09159 6.25142" stroke="#5E718D" strokeWidth="0.4" strokeLinecap="round" stroke-linejoin="round"/>
<path d="M8.59128 6.15479L8.50299 6.335" stroke="#5E718D" strokeWidth="0.4" strokeLinecap="round" stroke-linejoin="round"/>
<path d="M7.64221 6.2876L8.14802 6.38424" stroke="#5E718D" strokeWidth="0.4" strokeLinecap="round" stroke-linejoin="round"/>
<path d="M7.64224 6.2876L7.55396 6.47043" stroke="#5E718D" strokeWidth="0.4" strokeLinecap="round" stroke-linejoin="round"/>
<path d="M6.67474 6.43408L7.15664 6.5255" stroke="#5E718D" strokeWidth="0.4" strokeLinecap="round" stroke-linejoin="round"/>
<path d="M6.67476 6.43408L6.59015 6.60647" stroke="#5E718D" strokeWidth="0.4" strokeLinecap="round" stroke-linejoin="round"/>
<path d="M5.73669 6.52539L6.34182 6.64293" stroke="#5E718D" strokeWidth="0.4" strokeLinecap="round" stroke-linejoin="round"/>
<path d="M5.73674 6.52539L5.63007 6.74218" stroke="#5E718D" strokeWidth="0.4" strokeLinecap="round" stroke-linejoin="round"/>
<path d="M4.89062 6.66895L5.43138 6.77081" stroke="#5E718D" strokeWidth="0.4" strokeLinecap="round" stroke-linejoin="round"/>
<path d="M4.89068 6.66895L4.79688 6.86222" stroke="#5E718D" strokeWidth="0.4" strokeLinecap="round" stroke-linejoin="round"/>
<path d="M4.00043 6.83643L4.43818 6.91217" stroke="#5E718D" strokeWidth="0.4" strokeLinecap="round" stroke-linejoin="round"/>
<path d="M4.00045 6.83643L3.92688 6.9853" stroke="#5E718D" strokeWidth="0.4" strokeLinecap="round" stroke-linejoin="round"/>
<path d="M3.19482 6.93311L3.662 7.02191" stroke="#5E718D" strokeWidth="0.4" strokeLinecap="round" stroke-linejoin="round"/>
<path d="M3.19482 6.93311L3.11389 7.10027" stroke="#5E718D" strokeWidth="0.4" strokeLinecap="round" stroke-linejoin="round"/>
<path d="M2.41315 7.03223L2.91895 7.12887" stroke="#5E718D" strokeWidth="0.4" strokeLinecap="round" stroke-linejoin="round"/>
<path d="M2.41311 7.03223L2.32483 7.21245" stroke="#5E718D" strokeWidth="0.4" strokeLinecap="round" stroke-linejoin="round"/>
<path d="M1.62592 7.17041L2.05079 7.25138" stroke="#5E718D" strokeWidth="0.4" strokeLinecap="round" stroke-linejoin="round"/>
<path d="M1.62594 7.17041L1.55237 7.3219" stroke="#5E718D" strokeWidth="0.4" strokeLinecap="round" stroke-linejoin="round"/>
<path d="M0.139771 7.2959L1.44566 7.3403" stroke="#5E718D" strokeWidth="0.4" strokeLinecap="round" stroke-linejoin="round"/>
<path d="M0.139771 7.2959V7.49962" stroke="#5E718D" strokeWidth="0.4" strokeLinecap="round" stroke-linejoin="round"/>
<path d="M50.9739 26.6709L51.1928 26.731" stroke="#5E718D" strokeWidth="0.4" strokeLinecap="round" stroke-linejoin="round"/>
<path d="M50.0507 25.9395L50.4516 26.8249" stroke="#5E718D" strokeWidth="0.4" strokeLinecap="round" stroke-linejoin="bevel"/>
<path d="M50.9795 22.8836C50.9942 22.881 51.0089 22.8784 51.0255 22.8784C51.0825 22.8784 51.1285 22.8967 51.1285 22.9176C51.1285 22.9385 51.0825 22.9568 51.0255 22.9568C51.0089 22.9568 50.9924 22.9568 50.9795 22.9516" stroke="#5E718D" strokeWidth="0.4" strokeLinecap="round" stroke-linejoin="bevel"/>
<path d="M51.1284 25.7461C51.1284 25.767 51.0825 25.7853 51.0254 25.7853C51.0107 25.7853 50.9979 25.7853 50.985 25.7827" stroke="#5E718D" strokeWidth="0.4" strokeLinecap="round" stroke-linejoin="bevel"/>
<path d="M51.1285 15.2438V14.3584" stroke="#5E718D" strokeWidth="0.4" strokeLinecap="round" stroke-linejoin="round"/>
<path d="M51.1285 17.1872V16.3018" stroke="#5E718D" strokeWidth="0.4" strokeLinecap="round" stroke-linejoin="round"/>
<path d="M50.9777 14.3246C50.9924 14.3219 51.0089 14.3193 51.0273 14.3193C51.0843 14.3193 51.1303 14.3376 51.1303 14.3585" stroke="#5E718D" strokeWidth="0.4" strokeLinecap="round" stroke-linejoin="bevel"/>
<path d="M51.1285 17.187C51.1285 17.2079 51.0825 17.2262 51.0255 17.2262C51.0071 17.2262 50.9905 17.2262 50.9758 17.221" stroke="#5E718D" strokeWidth="0.4" strokeLinecap="round" stroke-linejoin="bevel"/>
<path d="M51.1285 6.4367V5.55127" stroke="#5E718D" strokeWidth="0.4" strokeLinecap="round" stroke-linejoin="round"/>
<path d="M50.9739 5.5172V4.43066" stroke="#5E718D" strokeWidth="0.4" strokeLinecap="round" stroke-linejoin="round"/>
<path d="M51.1285 8.37712V7.4917" stroke="#5E718D" strokeWidth="0.4" strokeLinecap="round" stroke-linejoin="round"/>
<path d="M50.9703 5.51743C50.9868 5.51482 51.0052 5.51221 51.0255 5.51221C51.0825 5.51221 51.1285 5.53049 51.1285 5.55139" stroke="#5E718D" strokeWidth="0.4" strokeLinecap="round" stroke-linejoin="bevel"/>
<path d="M50.9703 8.34604C50.9868 8.34082 51.0052 8.34082 51.0273 8.34082C51.0843 8.34082 51.1303 8.3591 51.1303 8.38C51.1303 8.40089 51.0843 8.41918 51.0273 8.41918C51.0107 8.41918 50.9942 8.41918 50.9813 8.41395" stroke="#5E718D" strokeWidth="0.4" strokeLinecap="round" stroke-linejoin="bevel"/>
<path d="M42.0387 30.8161V29.2646" stroke="#5E718D" strokeWidth="0.4" strokeLinecap="round" stroke-linejoin="bevel"/>
<path d="M42.848 3.10107L43.1331 4.13538" stroke="#5E718D" strokeWidth="0.4" strokeLinecap="round" stroke-linejoin="bevel"/>
<path d="M50.1058 5.39452L50.4516 4.45947" stroke="#5E718D" strokeWidth="0.4" strokeLinecap="round" stroke-linejoin="bevel"/>
<path d="M40.5066 28.9771L42.0387 29.2644" stroke="#5E718D" strokeWidth="0.4" strokeLinecap="round" stroke-linejoin="bevel"/>
<path d="M40.7549 1.25977V1.75863" stroke="#5E718D" strokeWidth="0.4" strokeLinecap="round" stroke-linejoin="round"/>
<path d="M50.9739 25.8062V26.6707" stroke="#5E718D" strokeWidth="0.4" strokeLinecap="round" stroke-linejoin="round"/>
<path d="M50.9739 17.2266V22.8839" stroke="#5E718D" strokeWidth="0.4" strokeLinecap="round" stroke-linejoin="round"/>
<path d="M50.9739 8.41406V14.3195" stroke="#5E718D" strokeWidth="0.4" strokeLinecap="round" stroke-linejoin="round"/>
<path d="M51.1928 7.47376V6.43945" stroke="#5E718D" strokeWidth="0.4" strokeLinecap="round" stroke-linejoin="round"/>
<path d="M51.1928 16.3019V15.2676" stroke="#5E718D" strokeWidth="0.4" strokeLinecap="round" stroke-linejoin="round"/>
<path d="M43.1864 5.2168V6.41565" stroke="#5E718D" strokeWidth="0.4" strokeLinecap="round" stroke-linejoin="round"/>
<path d="M43.1864 15.5156V16.7145" stroke="#5E718D" strokeWidth="0.4" strokeLinecap="round" stroke-linejoin="round"/>
<path d="M43.1864 25.626V26.8248" stroke="#5E718D" strokeWidth="0.4" strokeLinecap="round" stroke-linejoin="round"/>
<path d="M28 4.9541V26.4541" stroke="#5E718D" strokeWidth="0.4" strokeLinecap="round" stroke-linejoin="round"/>
<path d="M16 6.4541V24.4541" stroke="#5E718D" strokeWidth="0.4" strokeLinecap="round" stroke-linejoin="round"/>
<path d="M10 6.9541V22.9541" stroke="#5E718D" strokeWidth="0.4" strokeLinecap="round" stroke-linejoin="round"/>
<path d="M34 3.9541V27.4541" stroke="#5E718D" strokeWidth="0.4" strokeLinecap="round" stroke-linejoin="round"/>
<path d="M22 5.4541V25.4541" stroke="#5E718D" strokeWidth="0.4" strokeLinecap="round" stroke-linejoin="round"/>
<path d="M31 4.4541L31 26.9541" stroke="#5E718D" strokeWidth="0.4" strokeLinecap="round" stroke-linejoin="round"/>
<path d="M19 5.9541L19 24.9541" stroke="#5E718D" strokeWidth="0.4" strokeLinecap="round" stroke-linejoin="round"/>
<path d="M13 6.9541L13 23.9541" stroke="#5E718D" strokeWidth="0.4" strokeLinecap="round" stroke-linejoin="round"/>
<path d="M37 3.95418C37 3.45418 37 28.4542 37 28.4542" stroke="#5E718D" strokeWidth="0.4" strokeLinecap="round" stroke-linejoin="round"/>
<path d="M25 5.36229C25 4.95425 25 25.9543 25 25.9543" stroke="#5E718D" strokeWidth="0.4" strokeLinecap="round" stroke-linejoin="round"/>
</g>
<defs>
<clipPath id="clip0_1252_35471">
<rect width="51.2903" height="30" fill="white" transform="translate(0 0.954102)"/>
</clipPath>
</defs>
</svg>
