<svg width="42" height="31" viewBox="0 0 42 31" fill="none" xmlns="http://www.w3.org/2000/svg">
<path d="M22.2289 2.09189V12.3082" stroke="#777777" strokeWidth="0.4" strokeLinecap="round" stroke-linejoin="round"/>
<path d="M9.61841 30.1847V14.3103" stroke="#777777" strokeWidth="0.4" strokeLinecap="round" stroke-linejoin="round"/>
<path d="M16.2808 23.2922V14.3658" stroke="#777777" strokeWidth="0.4" strokeLinecap="round" stroke-linejoin="round"/>
<path d="M17.0758 22.7937V14.3262" stroke="#777777" strokeWidth="0.4" strokeLinecap="round" stroke-linejoin="round"/>
<path d="M13.0199 11.3427L22.1627 12.3082" stroke="#777777" strokeWidth="0.4" strokeLinecap="round" stroke-linejoin="round"/>
<path d="M29.8847 0.27182V21.5195" stroke="#777777" strokeWidth="0.4" strokeLinecap="round" stroke-linejoin="round"/>
<path d="M20.9847 2.09189V7.54428" stroke="#777777" strokeWidth="0.4" strokeLinecap="round" stroke-linejoin="round"/>
<path d="M26.3513 19.3988V22.0419" stroke="#777777" strokeWidth="0.4" strokeLinecap="round" stroke-linejoin="round"/>
<path d="M22.4644 20.388V13.4558" stroke="#777777" strokeWidth="0.4" strokeLinecap="round" stroke-linejoin="round"/>
<path d="M27.0799 11.7543L9.61139 14.3104L0.652588 11.9838" stroke="#777777" strokeWidth="0.4" strokeLinecap="round" stroke-linejoin="round"/>
<path d="M31.1506 6.35724L39.9327 7.2752" stroke="#777777" strokeWidth="0.4" strokeLinecap="round" stroke-linejoin="round"/>
<path d="M31.0698 19.6519L40.8751 14.1599" stroke="#777777" strokeWidth="0.4" strokeLinecap="round" stroke-linejoin="round"/>
<path d="M31.0698 2.36896L38.6593 4.43438L39.9329 7.27532V11.9284L38.2839 13.6694V14.2946L31.1213 17.9031" stroke="#777777" strokeWidth="0.4" strokeLinecap="round" stroke-linejoin="round"/>
<path d="M16.2808 2.59051V1.95743L29.892 0.184814L31.0551 0.406391L31.0698 19.9052L30.8195 20.0714V20.9814L29.892 21.5196L27.8603 20.9419V19.9448L26.8959 19.6836" stroke="#777777" strokeWidth="0.4" strokeLinecap="round" stroke-linejoin="round"/>
<path d="M30.8197 20.8627L40.8753 14.9988V14.1679L38.3872 13.5586" stroke="#777777" strokeWidth="0.4" strokeLinecap="round" stroke-linejoin="round"/>
<path d="M27.2125 8.30402L28.9866 8.28819V1.36389L22.4644 2.02071" stroke="#777777" strokeWidth="0.4" strokeLinecap="round" stroke-linejoin="round"/>
<path d="M1.28558 13.0046L8.65432 15.1175V25.4762L1.28558 20.8231V13.0046Z" stroke="#777777" strokeWidth="0.4" strokeLinecap="round" stroke-linejoin="round"/>
<path d="M23.1194 19.921V13.3449" stroke="#777777" strokeWidth="0.4" strokeLinecap="round" stroke-linejoin="round"/>
<path d="M10.7817 15.2679V25.864L26.513 18.4887V12.696L10.7817 15.2679Z" stroke="#777777" strokeWidth="0.4" strokeLinecap="round" stroke-linejoin="round"/>
<path d="M27.875 9.39608L28.9866 9.38025V19.652L27.875 19.3671V9.39608Z" stroke="#777777" strokeWidth="0.4" strokeLinecap="round" stroke-linejoin="round"/>
<path d="M26.896 19.1771V21.7886L26.366 22.0893L25.6666 21.7411V19.7627" stroke="#777777" strokeWidth="0.4" strokeLinecap="round" stroke-linejoin="round"/>
<path d="M2.14695 22.2634V24.3525L1.28567 24.5346L0.652588 24.2418V11.9838L13.0197 11.3428V2.9545L22.2288 1.9574L27.2124 3.14442V11.7859V19.003L10.7818 26.7266V29.797L9.61139 30.1848L8.65441 29.5359V26.3942L2.16903 22.2634L1.28567 21.6461V24.4871" stroke="#777777" strokeWidth="0.4" strokeLinecap="round" stroke-linejoin="round"/>
<path d="M20.131 7.66296H21.6621V10.8996L20.131 10.678V7.66296Z" stroke="#777777" strokeWidth="0.4" strokeLinecap="round" stroke-linejoin="round"/>
<path d="M31.1506 15.0146L39.9327 11.7859" stroke="#777777" strokeWidth="0.4" strokeLinecap="round" stroke-linejoin="round"/>
</svg>
