<svg width="22" height="32" viewBox="0 0 22 32" fill="none" xmlns="http://www.w3.org/2000/svg">
<path d="M1.98944 7.33008V29.368L13.083 30.9541L21.1354 28.5592V7.4069" stroke="#5E718D" strokeWidth="0.4" strokeLinecap="round" stroke-linejoin="round"/>
<path d="M13.0695 7.33887V30.9538" stroke="#5E718D" strokeWidth="0.4" strokeLinecap="round" stroke-linejoin="round"/>
<path d="M3.76984 26.91C3.76984 27.2696 3.91266 27.6144 4.16689 27.8686C4.42112 28.1228 4.76593 28.2656 5.12546 28.2656L9.19234 28.8395C9.55187 28.8395 9.89668 28.6967 10.1509 28.4425C10.4051 28.1882 10.548 27.8434 10.548 27.4839V8.00357C10.548 7.64404 10.4051 7.29923 10.1509 7.045C9.89668 6.79077 9.55187 6.64795 9.19234 6.64795H5.12546C4.76593 6.64795 4.42112 6.79077 4.16689 7.045C3.91266 7.29923 3.76984 7.64404 3.76984 8.00357V26.91Z" stroke="#5E718D" strokeWidth="0.4" strokeLinecap="round" stroke-linejoin="bevel"/>
<path d="M15.731 9.65255L16.1151 8.45508" stroke="#5E718D" strokeWidth="0.4" strokeLinecap="round" stroke-linejoin="bevel"/>
<path d="M16.9376 9.65255L17.3217 8.45508" stroke="#5E718D" strokeWidth="0.4" strokeLinecap="round" stroke-linejoin="bevel"/>
<path d="M18.1442 9.65255L18.5283 8.45508" stroke="#5E718D" strokeWidth="0.4" strokeLinecap="round" stroke-linejoin="bevel"/>
<path d="M19.3464 9.65255L19.7305 8.45508" stroke="#5E718D" strokeWidth="0.4" strokeLinecap="round" stroke-linejoin="bevel"/>
<path d="M14.5289 9.65255L14.913 8.45508" stroke="#5E718D" strokeWidth="0.4" strokeLinecap="round" stroke-linejoin="bevel"/>
<path d="M8.53693 18.9613L9.1334 19.002V15.7033L8.53693 15.6626V18.9613Z" stroke="#5E718D" strokeWidth="0.4" strokeLinecap="round" stroke-linejoin="round"/>
<path d="M19.6667 15.3734L14.5289 15.9427V11.0941L19.6667 10.8682V15.3734Z" stroke="#5E718D" strokeWidth="0.4" strokeLinecap="round" stroke-linejoin="round"/>
<path d="M19.6667 21.1485L14.5289 22.1426V17.3301L19.6667 16.6885V21.1485Z" stroke="#5E718D" strokeWidth="0.4" strokeLinecap="round" stroke-linejoin="round"/>
<path d="M19.6667 27.2218L14.5289 28.6181V23.5436L19.6667 22.5269V27.2218Z" stroke="#5E718D" strokeWidth="0.4" strokeLinecap="round" stroke-linejoin="round"/>
<path d="M10.9593 6.1597H21.5739V7.29391H11.8721L10.3131 5.35536C10.1863 5.21354 10.031 5.10001 9.8574 5.02216C9.68379 4.94431 9.49573 4.90387 9.30546 4.90349H4.70085C4.55517 4.90078 4.41099 4.93334 4.28061 4.99838C4.19924 5.04585 4.12213 5.10028 4.05016 5.16106C3.98111 5.2268 3.91903 5.29948 3.86489 5.37796L3.83326 5.42766L3.51242 5.92924L2.76683 7.0996L2.63127 7.31198H1V6.19585C1 6.16874 1.82241 6.22748 1.83597 6.19585C3.64347 2.7616 7.17713 0.954102 11.6868 0.954102C15.9661 0.954102 19.6579 3.05984 21.3434 6.10096" stroke="#5E718D" strokeWidth="0.4" strokeLinecap="round" stroke-linejoin="round"/>
</svg>
