<svg width="48" height="32" viewBox="0 0 48 32" fill="none" xmlns="http://www.w3.org/2000/svg">
<path d="M17.8286 1.01025V4.8503" stroke="#5E718D" strokeWidth="0.4" strokeLinecap="round" stroke-linejoin="round"/>
<path d="M20.7805 16.9296V28.7435L44.709 26.6871V15.4258L20.7805 16.9296Z" stroke="#5E718D" strokeWidth="0.4" strokeLinecap="round" stroke-linejoin="round"/>
<path d="M20.7805 6.78087V15.1254L44.709 13.6216V5.85059L20.7805 6.78087Z" stroke="#5E718D" strokeWidth="0.4" strokeLinecap="round" stroke-linejoin="round"/>
<path d="M1 1.71651L17.1436 5.1159L47.1994 4.15064V3.10145L17.7661 0.954102L1 1.26886V1.71651Z" stroke="#5E718D" strokeWidth="0.4" strokeLinecap="round" stroke-linejoin="round"/>
<path d="M17.3254 30.6534V5.12305" stroke="#5E718D" strokeWidth="0.4" strokeLinecap="round" stroke-linejoin="round"/>
<path d="M18.5842 30.9543V5.07422" stroke="#5E718D" strokeWidth="0.4" strokeLinecap="round" stroke-linejoin="round"/>
<path d="M1.1955 1.75146V21.0356L1.46129 21.6372L17.3251 30.8281L18.8569 30.954L45.8421 28.8836L46.7514 28.1421V4.16461" stroke="#5E718D" strokeWidth="0.4" strokeLinecap="round" stroke-linejoin="round"/>
<path d="M3.37097 13.2856V20.9727L5.37143 22.1059V14.0201L3.37097 13.2856Z" stroke="#5E718D" strokeWidth="0.4" strokeLinecap="round" stroke-linejoin="round"/>
<path d="M5.37143 4.60521L3.37097 4.16455V11.7607L5.37143 12.3762V4.60521Z" stroke="#5E718D" strokeWidth="0.4" strokeLinecap="round" stroke-linejoin="round"/>
<path d="M8.27417 15.0835V23.7428L10.2746 24.876V15.8109L8.27417 15.0835Z" stroke="#5E718D" strokeWidth="0.4" strokeLinecap="round" stroke-linejoin="round"/>
<path d="M10.2746 13.8734V5.68968L8.27417 5.24902V13.2649L10.2746 13.8734Z" stroke="#5E718D" strokeWidth="0.4" strokeLinecap="round" stroke-linejoin="round"/>
<path d="M15.2971 15.412V6.80164L13.0658 6.31201V14.7265L15.2971 15.412Z" stroke="#5E718D" strokeWidth="0.4" strokeLinecap="round" stroke-linejoin="round"/>
<path d="M13.0658 26.4495L15.2971 27.7015V17.6502L13.0658 16.8389V26.4495Z" stroke="#5E718D" strokeWidth="0.4" strokeLinecap="round" stroke-linejoin="round"/>
</svg>
