<svg width="32" height="35" viewBox="0 0 32 35" fill="none" xmlns="http://www.w3.org/2000/svg">
<g clip-path="url(#clip0_1579_6069)">
<path d="M0.0480957 30.3245L2.71209 25.2703H0.0480957V23.375H5.53656V25.2387L2.80838 30.3245H5.53656V32.2514H0.0641438L0.0480957 30.3245Z" fill="#65676B"/>
<path d="M7.99198 25.2387H6.22668V23.375H12.1003V25.2387H10.335V32.2514H7.99198V25.2387Z" fill="#65676B"/>
<path d="M12.7583 23.375H18.1023V25.2703H15.1013V26.7866H17.9098V28.6029H15.1013V30.3245H18.2147V32.2514H12.7583V23.375Z" fill="#65676B"/>
<path d="M29.5607 25.9345V25.7292C29.5607 25.208 29.3521 24.7658 28.8867 24.7658C28.3892 24.7658 28.1485 25.1448 28.1485 25.5555C28.1485 27.3086 31.984 26.4558 31.984 29.6936C31.984 31.5889 30.8606 32.426 28.7904 32.426C26.8486 32.426 25.7573 31.7626 25.7573 29.9305V29.6146H28.0362V29.8199C28.0362 30.5781 28.3571 30.8466 28.8065 30.8466C29.2879 30.8466 29.5607 30.4675 29.5607 29.9937C29.5607 28.2405 25.8697 29.1092 25.8697 25.9661C25.8697 24.1814 26.8486 23.2021 28.8225 23.2021C30.8606 23.2021 31.7433 24.0392 31.7433 25.9345H29.5607Z" fill="#65676B"/>
<path d="M19.1775 23.375H22.8525C24.6499 23.375 25.3239 24.37 25.3239 25.7283C25.3239 26.9129 24.8585 27.671 23.7833 27.8448V27.8764C24.9227 27.9711 25.2597 28.6819 25.2597 29.8664V30.6245C25.2597 31.0826 25.2597 31.6828 25.3721 31.8565C25.4363 31.9513 25.4844 32.0618 25.6449 32.125V32.2514H23.1414C22.9167 31.7775 22.9167 30.9404 22.9167 30.5614V29.9612C22.9167 28.9504 22.7081 28.6977 22.1464 28.6977H21.5205V32.2514H19.1775V23.375ZM21.5205 27.134H21.9859C22.6599 27.134 22.9649 26.7076 22.9649 26.0758C22.9649 25.3493 22.676 25.0492 21.9699 25.0492H21.5205V27.134Z" fill="#65676B"/>
<path d="M0 34.416H31.8877" stroke="#327BBF" strokeWidth="7.405"/>
<path d="M22.676 13.2354H22.5797V21.7484H22.676V13.2354Z" fill="url(#paint0_linear_1579_6069)"/>
<path d="M12.7743 13.1567L27.8595 10.4717L27.9719 11.1982L12.7743 13.7727V13.2515V13.1567Z" fill="#ED1D24"/>
<path d="M22.7402 0.015625H22.6439V8.18124H22.7402V0.015625Z" fill="url(#paint1_linear_1579_6069)"/>
<path d="M13.0953 13.2355L13.1756 13.2513L13.2077 13.2197L13.0953 13.2355Z" fill="url(#paint2_linear_1579_6069)"/>
<path d="M27.5386 10.9297L13.1755 13.2514L22.6118 13.2672V13.2198L27.5386 10.9297Z" fill="url(#paint3_linear_1579_6069)"/>
<path d="M27.4744 10.8823L22.676 8.19727L13.2076 13.2198L27.4744 10.8823Z" fill="url(#paint4_linear_1579_6069)"/>
<path d="M27.5386 10.9292L27.4744 10.8818L13.2076 13.2194L13.1755 13.251L27.5386 10.9292Z" fill="url(#paint5_linear_1579_6069)"/>
<path d="M27.5386 10.9292L27.4744 10.8818L13.2076 13.2194L13.1755 13.251L27.5386 10.9292Z" fill="url(#paint6_linear_1579_6069)"/>
<path d="M31.8395 21.7644V16.2996L28.4212 15.273L31.8395 13.4093V7.13899L22.676 0V8.1972L27.4744 10.8822L27.7151 10.8506L22.6279 13.2671H22.6118V21.7802L31.8395 21.7644Z" fill="url(#paint7_linear_1579_6069)"/>
<path d="M27.7151 10.8506L27.4744 10.8822L27.5386 10.9296L22.6118 13.2197V13.2671H22.6279L27.7151 10.8506Z" fill="url(#paint8_linear_1579_6069)"/>
<path d="M27.7151 10.8506L27.4744 10.8822L27.5386 10.9296L22.6118 13.2197V13.2671H22.6279L27.7151 10.8506Z" fill="url(#paint9_linear_1579_6069)"/>
<path d="M8.16846 8.95522L9.56464 8.21289H0.0480957L8.16846 8.95522Z" fill="url(#paint10_linear_1579_6069)"/>
<path d="M0.0480957 8.213H9.56465L0.080192 13.204V21.7802H22.6118V13.2198L13.1755 13.2356L22.676 8.1972V0H0.0480957V8.213Z" fill="url(#paint11_linear_1579_6069)"/>
</g>
<defs>
<linearGradient id="paint0_linear_1579_6069" x1="22.6192" y1="13.3804" x2="22.6192" y2="22.371" gradientUnits="userSpaceOnUse">
<stop stop-color="#F6891F"/>
<stop offset="0.1484" stop-color="#F6891F"/>
<stop offset="0.2298" stop-color="#F58120"/>
<stop offset="0.3597" stop-color="#F36921"/>
<stop offset="0.5006" stop-color="#F04923"/>
<stop offset="0.7609" stop-color="#C01229"/>
<stop offset="1" stop-color="#C01229"/>
</linearGradient>
<linearGradient id="paint1_linear_1579_6069" x1="22.6968" y1="0.152308" x2="22.6968" y2="22.0318" gradientUnits="userSpaceOnUse">
<stop stop-color="#FBAE3B"/>
<stop offset="0.0305311" stop-color="#FAA836"/>
<stop offset="0.1941" stop-color="#F6891F"/>
<stop offset="0.265" stop-color="#F58120"/>
<stop offset="0.378" stop-color="#F36921"/>
<stop offset="0.5006" stop-color="#F04923"/>
<stop offset="0.7609" stop-color="#C01229"/>
<stop offset="1" stop-color="#C01229"/>
</linearGradient>
<linearGradient id="paint2_linear_1579_6069" x1="13.599" y1="15.9909" x2="12.7337" y2="10.4395" gradientUnits="userSpaceOnUse">
<stop stop-color="#FBAE3B"/>
<stop offset="0.0559774" stop-color="#FBAE3B"/>
<stop offset="0.0819664" stop-color="#FAA836"/>
<stop offset="0.2212" stop-color="#F6891F"/>
<stop offset="0.2789" stop-color="#F58120"/>
<stop offset="0.3709" stop-color="#F36921"/>
<stop offset="0.4707" stop-color="#F04923"/>
<stop offset="0.4869" stop-color="#E64224"/>
<stop offset="0.5439" stop-color="#C72C29"/>
<stop offset="0.6045" stop-color="#C31E29"/>
<stop offset="0.6468" stop-color="#C01229"/>
<stop offset="1" stop-color="#C01229"/>
</linearGradient>
<linearGradient id="paint3_linear_1579_6069" x1="20.8144" y1="14.8662" x2="19.949" y2="9.315" gradientUnits="userSpaceOnUse">
<stop stop-color="#FBAE3B"/>
<stop offset="0.0559774" stop-color="#FBAE3B"/>
<stop offset="0.0819664" stop-color="#FAA836"/>
<stop offset="0.2212" stop-color="#F6891F"/>
<stop offset="0.2789" stop-color="#F58120"/>
<stop offset="0.3709" stop-color="#F36921"/>
<stop offset="0.4707" stop-color="#F04923"/>
<stop offset="0.4869" stop-color="#E64224"/>
<stop offset="0.5439" stop-color="#C72C29"/>
<stop offset="0.6045" stop-color="#C31E29"/>
<stop offset="0.6468" stop-color="#C01229"/>
<stop offset="1" stop-color="#C01229"/>
</linearGradient>
<linearGradient id="paint4_linear_1579_6069" x1="18.3402" y1="5.49619" x2="21.1" y2="14.8211" gradientUnits="userSpaceOnUse">
<stop stop-color="#FBAE3B"/>
<stop offset="0.0512293" stop-color="#FAA433"/>
<stop offset="0.1834" stop-color="#F78D21"/>
<stop offset="0.298" stop-color="#F6891F"/>
<stop offset="0.338" stop-color="#F58120"/>
<stop offset="0.4017" stop-color="#F36921"/>
<stop offset="0.4709" stop-color="#F04923"/>
<stop offset="0.8158" stop-color="#C01229"/>
<stop offset="1" stop-color="#C01229"/>
</linearGradient>
<linearGradient id="paint5_linear_1579_6069" x1="20.8087" y1="14.8666" x2="19.9434" y2="9.31541" gradientUnits="userSpaceOnUse">
<stop stop-color="#FBAE3B"/>
<stop offset="0.0559774" stop-color="#FBAE3B"/>
<stop offset="0.0819664" stop-color="#FAA836"/>
<stop offset="0.2212" stop-color="#F6891F"/>
<stop offset="0.2789" stop-color="#F58120"/>
<stop offset="0.3709" stop-color="#F36921"/>
<stop offset="0.4707" stop-color="#F04923"/>
<stop offset="0.4869" stop-color="#E64224"/>
<stop offset="0.5439" stop-color="#C72C29"/>
<stop offset="0.6045" stop-color="#C31E29"/>
<stop offset="0.6468" stop-color="#C01229"/>
<stop offset="1" stop-color="#C01229"/>
</linearGradient>
<linearGradient id="paint6_linear_1579_6069" x1="18.3468" y1="5.49378" x2="21.1066" y2="14.8187" gradientUnits="userSpaceOnUse">
<stop stop-color="#FBAE3B"/>
<stop offset="0.0512293" stop-color="#FAA433"/>
<stop offset="0.1834" stop-color="#F78D21"/>
<stop offset="0.298" stop-color="#F6891F"/>
<stop offset="0.338" stop-color="#F58120"/>
<stop offset="0.4017" stop-color="#F36921"/>
<stop offset="0.4709" stop-color="#F04923"/>
<stop offset="0.8158" stop-color="#C01229"/>
<stop offset="1" stop-color="#C01229"/>
</linearGradient>
<linearGradient id="paint7_linear_1579_6069" x1="28.9677" y1="3.0909" x2="22.4692" y2="33.6145" gradientUnits="userSpaceOnUse">
<stop stop-color="#FBAE3B"/>
<stop offset="0.0305311" stop-color="#FAA836"/>
<stop offset="0.1941" stop-color="#F6891F"/>
<stop offset="0.265" stop-color="#F58120"/>
<stop offset="0.378" stop-color="#F36921"/>
<stop offset="0.5006" stop-color="#F04923"/>
<stop offset="0.7609" stop-color="#C01229"/>
<stop offset="1" stop-color="#C01229"/>
</linearGradient>
<linearGradient id="paint8_linear_1579_6069" x1="25.503" y1="14.1352" x2="24.6377" y2="8.584" gradientUnits="userSpaceOnUse">
<stop stop-color="#FBAE3B"/>
<stop offset="0.0559774" stop-color="#FBAE3B"/>
<stop offset="0.0819664" stop-color="#FAA836"/>
<stop offset="0.2212" stop-color="#F6891F"/>
<stop offset="0.2789" stop-color="#F58120"/>
<stop offset="0.3709" stop-color="#F36921"/>
<stop offset="0.4707" stop-color="#F04923"/>
<stop offset="0.4869" stop-color="#E64224"/>
<stop offset="0.5439" stop-color="#C72C29"/>
<stop offset="0.6045" stop-color="#C31E29"/>
<stop offset="0.6468" stop-color="#C01229"/>
<stop offset="1" stop-color="#C01229"/>
</linearGradient>
<linearGradient id="paint9_linear_1579_6069" x1="27.2116" y1="2.71699" x2="20.7131" y2="33.2406" gradientUnits="userSpaceOnUse">
<stop stop-color="#FBAE3B"/>
<stop offset="0.0305311" stop-color="#FAA836"/>
<stop offset="0.1941" stop-color="#F6891F"/>
<stop offset="0.265" stop-color="#F58120"/>
<stop offset="0.378" stop-color="#F36921"/>
<stop offset="0.5006" stop-color="#F04923"/>
<stop offset="0.7609" stop-color="#C01229"/>
<stop offset="1" stop-color="#C01229"/>
</linearGradient>
<linearGradient id="paint10_linear_1579_6069" x1="0.270585" y1="10.098" x2="8.91089" y2="6.57447" gradientUnits="userSpaceOnUse">
<stop stop-color="#F6891F"/>
<stop offset="0.0935261" stop-color="#F58120"/>
<stop offset="0.2426" stop-color="#F36921"/>
<stop offset="0.4044" stop-color="#F04923"/>
<stop offset="0.9473" stop-color="#C01229"/>
<stop offset="1" stop-color="#C01229"/>
</linearGradient>
<linearGradient id="paint11_linear_1579_6069" x1="11.3606" y1="-0.841713" x2="11.3606" y2="33.3148" gradientUnits="userSpaceOnUse">
<stop stop-color="#FBAE3B"/>
<stop offset="0.2547" stop-color="#FBAE3B"/>
<stop offset="0.2874" stop-color="#FAA836"/>
<stop offset="0.4621" stop-color="#F6891F"/>
<stop offset="0.559" stop-color="#F58120"/>
<stop offset="0.7136" stop-color="#F36921"/>
<stop offset="0.8812" stop-color="#F04923"/>
<stop offset="0.9343" stop-color="#C01229"/>
<stop offset="1" stop-color="#C01229"/>
</linearGradient>
<clipPath id="clip0_1579_6069">
<rect width="32" height="35" fill="white"/>
</clipPath>
</defs>
</svg>
