<svg width="42" height="32" viewBox="0 0 42 32" fill="none" xmlns="http://www.w3.org/2000/svg">
<path d="M22.5763 2.86133V13.0776" stroke="#5E718D" strokeWidth="0.4" strokeLinecap="round" stroke-linejoin="round"/>
<path d="M9.96582 30.954V15.0796" stroke="#5E718D" strokeWidth="0.4" strokeLinecap="round" stroke-linejoin="round"/>
<path d="M16.6283 24.0617V15.1353" stroke="#5E718D" strokeWidth="0.4" strokeLinecap="round" stroke-linejoin="round"/>
<path d="M17.4232 23.5631V15.0957" stroke="#5E718D" strokeWidth="0.4" strokeLinecap="round" stroke-linejoin="round"/>
<path d="M13.3673 12.1118L22.5101 13.0773" stroke="#5E718D" strokeWidth="0.4" strokeLinecap="round" stroke-linejoin="round"/>
<path d="M30.2321 1.04102V22.2887" stroke="#5E718D" strokeWidth="0.4" strokeLinecap="round" stroke-linejoin="round"/>
<path d="M21.3322 2.86133V8.31372" stroke="#5E718D" strokeWidth="0.4" strokeLinecap="round" stroke-linejoin="round"/>
<path d="M26.6986 20.168V22.8111" stroke="#5E718D" strokeWidth="0.4" strokeLinecap="round" stroke-linejoin="round"/>
<path d="M22.8118 21.1573V14.2251" stroke="#5E718D" strokeWidth="0.4" strokeLinecap="round" stroke-linejoin="round"/>
<path d="M27.4273 12.5234L9.9588 15.0795L1 12.7529" stroke="#5E718D" strokeWidth="0.4" strokeLinecap="round" stroke-linejoin="round"/>
<path d="M31.498 7.12646L40.2802 8.04443" stroke="#5E718D" strokeWidth="0.4" strokeLinecap="round" stroke-linejoin="round"/>
<path d="M31.4171 20.4212L41.2225 14.9292" stroke="#5E718D" strokeWidth="0.4" strokeLinecap="round" stroke-linejoin="round"/>
<path d="M31.4171 3.13818L39.0067 5.2036L40.2802 8.04454V12.6977L38.6313 14.4386V15.0638L31.4686 18.6723" stroke="#5E718D" strokeWidth="0.4" strokeLinecap="round" stroke-linejoin="round"/>
<path d="M16.6283 3.3598V2.72672L30.2395 0.954102L31.4026 1.17568L31.4173 20.6745L31.167 20.8407V21.7507L30.2395 22.2888L28.2077 21.7112V20.7141L27.2434 20.4529" stroke="#5E718D" strokeWidth="0.4" strokeLinecap="round" stroke-linejoin="round"/>
<path d="M31.1671 21.6318L41.2228 15.7679V14.937L38.7346 14.3276" stroke="#5E718D" strokeWidth="0.4" strokeLinecap="round" stroke-linejoin="round"/>
<path d="M27.5599 9.07343L29.3339 9.0576V2.1333L22.8118 2.79012" stroke="#5E718D" strokeWidth="0.4" strokeLinecap="round" stroke-linejoin="round"/>
<path d="M1.63306 13.7739L9.0018 15.8868V26.2456L1.63306 21.5924V13.7739Z" stroke="#5E718D" strokeWidth="0.4" strokeLinecap="round" stroke-linejoin="round"/>
<path d="M23.4668 20.6904V14.1143" stroke="#5E718D" strokeWidth="0.4" strokeLinecap="round" stroke-linejoin="round"/>
<path d="M11.1292 16.0372V26.6334L26.8604 19.258V13.4653L11.1292 16.0372Z" stroke="#5E718D" strokeWidth="0.4" strokeLinecap="round" stroke-linejoin="round"/>
<path d="M28.2224 10.1652L29.334 10.1494V20.4211L28.2224 20.1362V10.1652Z" stroke="#5E718D" strokeWidth="0.4" strokeLinecap="round" stroke-linejoin="round"/>
<path d="M27.2434 19.9463V22.5577L26.7134 22.8585L26.014 22.5103V20.5319" stroke="#5E718D" strokeWidth="0.4" strokeLinecap="round" stroke-linejoin="round"/>
<path d="M2.49436 23.0326V25.1217L1.63308 25.3037L1 25.0109V12.7529L13.3671 12.112V3.72366L22.5762 2.72656L27.5599 3.91358V12.5551V19.7722L11.1293 27.4958V30.5662L9.9588 30.9539L9.00182 30.305V27.1634L2.51644 23.0326L1.63308 22.4153V25.2562" stroke="#5E718D" strokeWidth="0.4" strokeLinecap="round" stroke-linejoin="round"/>
<path d="M20.4784 8.43213H22.0096V11.6687L20.4784 11.4472V8.43213Z" stroke="#5E718D" strokeWidth="0.4" strokeLinecap="round" stroke-linejoin="round"/>
<path d="M31.498 15.7839L40.2802 12.5552" stroke="#5E718D" strokeWidth="0.4" strokeLinecap="round" stroke-linejoin="round"/>
</svg>
