<svg width="38" height="32" viewBox="0 0 38 32" fill="none" xmlns="http://www.w3.org/2000/svg">
<path d="M1 26.7686L14.2816 30.9541V0.954102L1 4.11258V26.7686Z" stroke="#5E718D" strokeWidth="0.4" strokeLinecap="round" stroke-linejoin="round"/>
<path d="M7.35144 15.7416V27.5914L12.8914 29.27V2.63281L7.35144 3.80344V14.6759" stroke="#5E718D" strokeWidth="0.4" strokeLinecap="round" stroke-linejoin="round"/>
<path d="M14.2816 30.9541L37.2858 22.583V7.27105L14.2816 0.954102V30.9541Z" stroke="#5E718D" strokeWidth="0.4" strokeLinecap="round" stroke-linejoin="round"/>
<path d="M15.6945 29.1321L36.0997 21.6666L36.1052 8.33698L15.6945 2.771V29.1321Z" stroke="#5E718D" strokeWidth="0.4" strokeLinecap="round" stroke-linejoin="round"/>
<path d="M7.90312 15.7198L5.75665 15.6535V14.6982H7.90312V15.7198Z" stroke="#5E718D" strokeWidth="0.4" strokeLinecap="round" stroke-linejoin="round"/>
<path d="M17.8077 3.4668V28.3591" stroke="#5E718D" strokeWidth="0.4" strokeLinecap="round" stroke-linejoin="round"/>
<path d="M19.8495 4.03516V27.4311" stroke="#5E718D" strokeWidth="0.4" strokeLinecap="round" stroke-linejoin="round"/>
<path d="M21.8967 4.46582V26.6745" stroke="#5E718D" strokeWidth="0.4" strokeLinecap="round" stroke-linejoin="round"/>
<path d="M23.9435 5.08447V25.9569" stroke="#5E718D" strokeWidth="0.4" strokeLinecap="round" stroke-linejoin="round"/>
<path d="M25.9907 5.62012V25.1452" stroke="#5E718D" strokeWidth="0.4" strokeLinecap="round" stroke-linejoin="round"/>
<path d="M28.0375 6.35449V24.582" stroke="#5E718D" strokeWidth="0.4" strokeLinecap="round" stroke-linejoin="round"/>
<path d="M30.0848 6.79053V23.8474" stroke="#5E718D" strokeWidth="0.4" strokeLinecap="round" stroke-linejoin="round"/>
<path d="M32.1324 7.26562V22.9365" stroke="#5E718D" strokeWidth="0.4" strokeLinecap="round" stroke-linejoin="round"/>
<path d="M34.1791 7.9502V22.2462" stroke="#5E718D" strokeWidth="0.4" strokeLinecap="round" stroke-linejoin="round"/>
<path d="M9.94464 3.29541V28.3589" stroke="#5E718D" strokeWidth="0.4" strokeLinecap="round" stroke-linejoin="round"/>
<path d="M4.00745 4.54346V26.5258" stroke="#5E718D" strokeWidth="0.4" strokeLinecap="round" stroke-linejoin="round"/>
<path d="M6.34144 14.626V4.03516L2.09265 4.95178V25.9457L6.34144 27.2323V15.7193" stroke="#5E718D" strokeWidth="0.4" strokeLinecap="round" stroke-linejoin="round"/>
</svg>
